<svg width="3814" height="5336" viewBox="0 0 3814 5336" fill="none" xmlns="http://www.w3.org/2000/svg">
<g id="Universal_Numbering_System 1" clip-path="url(#clip0_18_276)">
<path id="path2994" d="M656.578 2303.56C717.026 2308.81 771.537 2322.49 808.249 2353.94C860.661 2379.7 894.1 2406.7 891.334 2436.08C908.11 2480.85 895.053 2513.37 885.227 2547.22L857.304 2602.78C839.642 2635.13 803.142 2656.65 746.048 2666.36C678.836 2676.96 611.617 2689.67 544.534 2653.3C468.159 2626.21 464.525 2587.77 457.188 2549.91C434.647 2511.07 419.555 2464.3 428.495 2391.96C436.416 2358.9 446.483 2316.86 495.774 2297.64C545.064 2278.43 589.26 2288.4 656.578 2303.56Z" stroke="black" stroke-width="10" stroke-linejoin="round"/>
<path id="path3772" d="M476.711 2362.62C420.594 2438.36 459.043 2471.73 482.224 2511.94C475.916 2580.11 477.802 2632.51 526.342 2626.14C597.906 2674.64 650.098 2648.61 706.994 2640.68C715.154 2628.36 715.672 2612.39 738.189 2606.95C738.189 2606.95 788.303 2504.72 794.796 2488.77C801.288 2472.83 806.525 2443.26 772.793 2411.25C772.793 2411.25 720.604 2359.38 687.073 2344.83C671.123 2337.91 652.342 2340 635.259 2336.25C600.237 2328.57 531.662 2307.83 531.662 2307.83C498.804 2300.92 478.368 2317.1 476.711 2362.62Z" stroke="black" stroke-width="10"/>
<path id="path3774" d="M707.192 2568.84C709.333 2567.49 671.569 2544.61 645.08 2534.88C631.535 2529.91 623.436 2514.43 619.995 2501.01C612.913 2473.4 641.029 2438.38 632.076 2416.53C623.122 2394.69 604.301 2393.71 587.725 2386.84C576.629 2382.25 570.041 2386.08 552.199 2379.71" stroke="black" stroke-width="10" stroke-linecap="round"/>
<path id="path3776" d="M685.464 2391.31C661.856 2397.92 631.874 2403.5 630.603 2413.71" stroke="black" stroke-width="10" stroke-linecap="round" stroke-linejoin="round"/>
<path id="path3778" d="M554.804 2509.3C564.35 2504.78 576.637 2499.31 591.847 2503.76C607.056 2508.21 614.997 2509.6 620.006 2496.79" stroke="black" stroke-width="10" stroke-linecap="round"/>
<path id="path3780" d="M683.68 2501.17C661.448 2500.31 637.14 2512.99 618.548 2488.33" stroke="black" stroke-width="10" stroke-linecap="round"/>
<path id="path5171" d="M495.201 2102.09C474.003 2074.46 476.775 2034.25 491.072 1987.99C545.627 1869.15 643.635 1843.54 796.319 1935.22C844.212 1953.61 882.179 1988.96 907.155 2024.24C931.724 2058.94 954.535 2075.64 942.391 2137.01C914.35 2240.38 865.916 2321.47 728.652 2305.5C674.112 2299.19 625.949 2312.77 556.968 2261.41C530.265 2219.37 478.81 2222.17 495.201 2102.09Z" stroke="black" stroke-width="10" stroke-linecap="round"/>
<path id="path5173" d="M557.829 1948.72C615.272 1830.63 709.265 1924.51 800.576 2002.84C819.262 2024.2 842.987 2037.62 850.731 2076.21C878.876 2144.27 809.082 2183.02 776.255 2229.56C743.428 2276.09 709.534 2299.3 650.221 2281.36C511.515 2232.74 506.215 2168.98 527.785 2102.17C483.981 2003.29 513.652 1998.09 525.187 1969.76C536.064 1964.05 546.933 1961.36 557.829 1948.72Z" stroke="black" stroke-width="10"/>
<path id="path5175" d="M778.356 2004.2C764.407 2011.41 754.348 2011.26 744.272 2011.16C717.363 2007.36 706.056 2020.96 702.713 2043.45C702.356 2057.59 706.327 2073.11 683.359 2080.02C663.568 2097.19 673.441 2105.03 675.856 2115.22C675.319 2131.2 674.796 2141.93 674.278 2150.43C673.824 2207.8 690.349 2206.57 700.728 2226.55C706.982 2233.03 714.712 2239.05 709.553 2249.11L721.374 2259" stroke="black" stroke-width="10" stroke-linecap="round"/>
<path id="path5177" d="M686.716 1936.36C692.368 1948.11 697.864 1959.86 707.354 1971.62C717.893 1979.12 722.346 1995.26 725.011 2013.92" stroke="black" stroke-width="10" stroke-linecap="round"/>
<path id="path5179" d="M581.495 1960.04C601.43 1960.85 621.402 1961.62 625.88 1977.06C651.136 1994.83 676.467 2012.65 704.226 2032.18" stroke="black" stroke-width="10" stroke-linecap="round"/>
<path id="path5181" d="M544.115 2088.13L601.857 2095.31C623.577 2104.22 646.329 2110.22 675.907 2096.91" stroke="black" stroke-width="10" stroke-linecap="round"/>
<path id="path5183" d="M657.684 2260.25L672.53 2247.61C668.419 2211.47 675.959 2206.05 687.441 2211.03" stroke="black" stroke-width="10" stroke-linecap="round"/>
<path id="path5185" d="M675.841 2120.85L706.951 2118.11C720.75 2127.16 734.558 2132.55 748.367 2137.93" stroke="black" stroke-width="10" stroke-linecap="round"/>
<path id="path5187" d="M637.492 1524.95C741.622 1438.99 818.391 1488.64 895.163 1538.26C915.895 1562.73 936.176 1587.2 964.572 1611.68C1051.52 1691.15 1035.17 1745.09 984.814 1790.61C953.43 1823.73 923.373 1856.21 907.547 1881.98C889.408 1899.74 872.732 1913.36 858.567 1919.88C791.537 1948.51 765.945 1908.59 728.318 1888.57C593.132 1820.81 544.72 1726.42 579.506 1606.5C583.338 1560.26 606.203 1537.43 637.492 1524.95Z" stroke="black" stroke-width="10"/>
<path id="path5189" d="M653.497 1629.22C631.625 1532.79 684.404 1543.46 713.042 1519.5C762.795 1508.12 804.47 1480.42 887.762 1536.84C949.795 1618.93 931.249 1665.02 939.087 1722.89C942.917 1778.15 925.472 1811.73 901.778 1825.62C895.881 1855.43 897.273 1883.95 845.264 1909.99C801.004 1947.52 769.897 1915.24 737.197 1891.41C687.957 1878.83 680.048 1848.06 681.153 1805.35C580.949 1763.91 636.98 1685.64 653.497 1629.22Z" stroke="black" stroke-width="10"/>
<path id="path5191" d="M847.765 1539.55C837.577 1550.93 823.979 1552.49 820.982 1584.56C825.587 1617.44 806.6 1650.26 788.127 1683.08C769.024 1700.76 775.225 1748.68 770.079 1783.04C788.792 1800 807.552 1800.19 826.317 1798.67L861.781 1828.34" stroke="black" stroke-width="10" stroke-linecap="round"/>
<path id="path5193" d="M672.716 1641.94C685.413 1655.03 694.894 1670.14 730.404 1668.85C750.652 1666.38 770.897 1665.14 791.105 1677.45" stroke="black" stroke-width="10" stroke-linecap="round"/>
<path id="path5195" d="M896.326 1653.77C857.523 1660.11 800.169 1657.58 789.624 1677.45" stroke="black" stroke-width="10" stroke-linecap="round"/>
<path id="path5197" d="M694.502 1798.34C734.016 1815.35 750.755 1797.5 771.552 1785.86" stroke="black" stroke-width="10" stroke-linecap="round"/>
<path id="path5199" d="M726.942 1850.54L744.858 1798.47" stroke="black" stroke-width="10" stroke-linecap="round"/>
<path id="path3063" d="M845.66 1228.26C742.862 1242.21 694.106 1292.64 725.228 1396.99C758.007 1435.28 787.808 1476.4 843.45 1493.06C863.166 1492.67 880.478 1494.56 892.302 1501.64C909.372 1506.08 928.929 1506.05 950.06 1503.19C989.854 1483.09 1043.36 1499.81 1065.78 1433.05C1084.28 1379.63 1081.12 1332.59 1036.53 1297.76C948.391 1227.66 899.947 1233.56 845.66 1228.26Z" stroke="black" stroke-width="10" stroke-linecap="round"/>
<path id="path3065" d="M870.819 1235.37C857.79 1249.74 845.676 1263.27 850.539 1278.75C844.865 1296.67 844.881 1301.94 843.958 1308.55C835.902 1322.78 835.299 1326.44 835.013 1329.65C835.282 1354.34 839.646 1359.82 843.799 1366.3C855.532 1398.97 844.789 1405.86 837.735 1416.99C830.588 1428 820.601 1422.55 816.899 1453.56" stroke="black" stroke-width="10" stroke-linecap="round"/>
<path id="path3067" d="M947.218 1459.52C897.291 1443.07 894.12 1417.86 902.976 1390.39C897.715 1346.18 916.64 1320.48 929.91 1290.45" stroke="black" stroke-width="10" stroke-linecap="round"/>
<path id="path3069" d="M975.769 1310.28C955.027 1312.67 934.291 1313.29 913.529 1322.8" stroke="black" stroke-width="10" stroke-linecap="round"/>
<path id="path3071" d="M879.577 1281.87C902.212 1300.35 909.223 1315.07 916.472 1329.85" stroke="black" stroke-width="10" stroke-linecap="round"/>
<path id="path3073" d="M846.517 1455.04C856.061 1445.78 873.611 1431.98 902.918 1411.52" stroke="black" stroke-width="10" stroke-linecap="round"/>
<path id="path3876" d="M928.74 955.022C842.938 983.438 837.298 1022.65 836.885 1062.56C832.52 1238.11 989.217 1235.14 1019.56 1221.64C1067.31 1227.27 1100.47 1222.04 1126.56 1211.56C1175.28 1208.01 1198.75 1180.31 1206.54 1137.62C1213.67 1114.7 1216.1 1089.54 1204.04 1057.44C1195.22 1039.51 1201.22 1022.32 1147.08 1002.12C1090 996.136 1071.93 982.366 1048.37 967.389C1014.48 932.414 972.321 940.045 928.74 955.022Z" stroke="black" stroke-width="10" stroke-linecap="round"/>
<path id="path3878" d="M1010.33 955.225C1010.71 963.847 1017.3 972.485 994.844 981.05C955.959 1011.04 958.591 1033.23 967.447 1054.26C985.451 1086.79 979.03 1102.2 960.949 1109.42C904.871 1161.15 917.644 1171.76 902.686 1198.94" stroke="black" stroke-width="10" stroke-linecap="round"/>
<path id="path3880" d="M940.833 1172.31C993.242 1165.24 1035.43 1145.53 1047.13 1088.08C1053.31 1054.82 1033.06 1035.83 1005.61 1020.73" stroke="black" stroke-width="10" stroke-linecap="round"/>
<path id="path3882" d="M1130.67 1037.43C1062.18 1043.96 1040.14 1060.67 1048.96 1081.19C1048.78 1135.32 1066.83 1122.47 1079.62 1139.89" stroke="black" stroke-width="10" stroke-linecap="round"/>
<path id="path3884" d="M1016.97 1175.94C1026.69 1163.9 1023.44 1151.82 1018.88 1139.74" stroke="black" stroke-width="10" stroke-linecap="round"/>
<path id="path3886" d="M1073.6 1021.77C1049.69 1042.67 1047.28 1053.43 1047.2 1063.08" stroke="black" stroke-width="10" stroke-linecap="round"/>
<path id="path3888" d="M1152.48 1016.79C1169.27 1052.41 1152.56 1081.59 1155.86 1107.32C1158.98 1143.18 1147.8 1173.71 1107.57 1193.41C1082.84 1206.66 1052.83 1209.36 1025.94 1211.31" stroke="black" stroke-width="10" stroke-linecap="round"/>
<path id="path3890" d="M925.448 1492.11C964.691 1466.72 1017.1 1487.98 1034.45 1411.35C1037.52 1386.91 1055.11 1358.07 1014.81 1301.81" stroke="black" stroke-width="10" stroke-linecap="round"/>
<path id="path3892" d="M1082.83 963.164C1025.99 945.133 999.38 912.144 993.34 868.971C986.318 826.758 994.071 785.586 1020.87 745.756C1044.31 683.727 1067.57 687.162 1090.85 682.996C1111.62 685.486 1130.49 684.354 1148.87 682.278C1204.43 679.937 1225.12 703.898 1238.51 719.572C1285.39 779.275 1280.22 814.061 1291.62 856.781C1297.48 903.952 1294.9 944.286 1269.56 966.216C1192.47 1021.05 1179.37 994.18 1147.11 991.774C1087.03 967.711 1102.49 972.037 1082.83 963.164Z" stroke="black" stroke-width="10" stroke-linecap="round"/>
<path id="path3894" d="M1047.64 901.866C1050.34 843.476 1055.5 788.079 1084.29 761.432C1112.77 733.054 1149.42 712.482 1199.57 704.82" stroke="black" stroke-width="10" stroke-linecap="round"/>
<path id="path3896" d="M1223 756.605C1256.99 882.363 1271.73 912.042 1182.9 834.096" stroke="black" stroke-width="10" stroke-linecap="round"/>
<path id="path3898" d="M1143.8 877.966C1218.64 964.103 1169 951.364 1088.4 914.038" stroke="black" stroke-width="10" stroke-linecap="round"/>
<path id="path3900" d="M1259.67 608.412C1399.93 520.846 1371.19 546.405 1431.22 526.938C1452.15 519.826 1469.52 518.762 1478.35 532.228L1510.9 563.345C1533.02 589.782 1531.55 595.395 1534.35 604.785C1544.77 686.533 1532.73 685.506 1530.41 720.299C1514.37 749.913 1495 776.343 1462.23 789.961C1442 803.529 1414 802.197 1384.25 797.526L1335.33 786.197C1316.15 788.94 1299.62 776.774 1282.8 766.237C1247.31 742.545 1238.14 708.918 1225.94 676.435C1223.48 655.425 1229.77 636.813 1244.22 620.443L1259.67 608.412Z" stroke="black" stroke-width="10" stroke-linecap="round"/>
<path id="path3902" d="M1299.15 756.795C1280.32 728.953 1250.18 706.454 1286.74 652.447C1320.28 627.561 1346.52 619.879 1375.71 605.252C1400.84 593.223 1425.77 581.556 1443.76 583.007C1518.68 576.166 1487.84 593.189 1508.08 598.685" stroke="black" stroke-width="10" stroke-linecap="round"/>
<path id="path3904" d="M1456.32 631.317C1462.73 663.222 1468.71 695.955 1486.94 705.535" stroke="black" stroke-width="10" stroke-linecap="round"/>
<path id="path3906" d="M1413.35 763.976C1416 736.804 1374.35 725.309 1340.07 711.204" stroke="black" stroke-width="10" stroke-linecap="round"/>
<path id="path3908" d="M1533.58 554.78C1534.27 560.788 1571.16 622.649 1580.46 650.592C1593.04 680.76 1613.06 708.032 1666.38 722.362C1709.92 717.277 1754.08 716.19 1790.73 666.634L1880.83 536.678L1897.26 495.338C1909.13 465.487 1883.43 438.039 1859.38 426.274L1794.16 409.731C1756.06 407.41 1730.78 396.791 1656.34 418.009L1586.5 432.491C1561.09 443.147 1527.16 438.976 1526.5 492.69C1527.84 513.222 1519.38 532.176 1533.58 554.78Z" stroke="black" stroke-width="10" stroke-linecap="round"/>
<path id="path3910" d="M1600.45 634.262L1584.48 507.491C1593.14 507.512 1574.74 481.898 1607.25 470.476C1725.96 426.508 1794.57 458.737 1813.94 468.405C1833.3 478.072 1850.11 504.508 1846.4 532.282C1842.68 560.056 1834.55 566.726 1829.04 580.518" stroke="black" stroke-width="10" stroke-linecap="round"/>
<path id="path3912" d="M498.643 3078.21C493.019 3040.76 467.852 3037.18 488.104 2954.9C498.654 2896.19 528.913 2847.7 597.261 2818.96C638.633 2813.36 676.342 2785.3 724.173 2819.27C738.114 2830.86 748.501 2837.04 757.652 2841.77C776.665 2860.6 813.621 2861.71 831.735 2933.34C831.719 2960.64 824.719 2971.21 837.815 3029.91C841.966 3052.54 854.045 3066.72 840.318 3108.37C825.526 3127.64 826.862 3148.03 781.238 3165.13C768.717 3176.12 669.232 3186.5 637.045 3185.46C604.859 3184.41 606.46 3194.87 557.367 3150.77C537.897 3127.4 520.214 3117.92 498.643 3078.21Z" stroke="black" stroke-width="10"/>
<path id="path3914" d="M726.812 2848.59C690.016 2796.43 648.948 2819.62 607.13 2856.05C583.36 2883.21 576.014 2911.82 578.793 2941.33C579.817 2959.06 587.924 2971.04 605.896 2975.02C594.035 2981.33 589.295 2993.08 589.486 3008.6L605.557 3098.31C620.878 3135.27 633.047 3135.07 646.217 3146.68C653.246 3150.07 660.363 3153.37 669.765 3154.5C682.77 3150.33 695.771 3147.78 708.862 3112.36C697.793 3108.98 743.767 3092.16 709.915 3058.91C699.012 3047.57 735.877 3010.81 714.664 2980.47C703.808 2947.08 693.469 2918.23 684.955 2905.39C707.874 2901.84 701.034 2882.03 708.622 2870.1" stroke="black" stroke-width="10"/>
<path id="path3916" d="M657.779 2898.42L684.955 2905.39" stroke="black" stroke-width="10"/>
<path id="path3920" d="M764.541 2973.69C750.139 2979.86 737.674 2990.36 716.475 2981.33" stroke="black" stroke-width="10"/>
<path id="path3922" d="M676.305 3083.83C693.241 3081.35 705.916 3073.17 710.834 3054.6" stroke="black" stroke-width="10"/>
<path id="path3924" d="M644.879 2974.26C667.368 2970.13 692.13 2957.46 710.16 2970.11" stroke="black" stroke-width="10"/>
<path id="path3926" d="M716.028 3143.41C730.352 3142.99 743.888 3144.14 760.459 3139.21C784.142 3114.05 792.636 3114.02 807.698 3103.12C810.531 3102.3 840.379 3072.74 818.783 3028.14C806.857 3005.32 803.964 2997.43 808.941 2980.7C797.233 2941.68 803.581 2932.9 800.98 2909.13" stroke="black" stroke-width="10"/>
<path id="path3928" d="M625.246 3190.6C591.448 3205.54 556.949 3215.04 525.373 3247.25C499.227 3266.83 479.773 3302.09 475.17 3372.13C472.976 3421.38 460.425 3469.38 494.698 3523.05C524.125 3546.64 506.098 3554.67 586.06 3594.84C627.252 3611.25 656.823 3647.43 720.138 3626.21C750.768 3617.96 761.112 3621.21 813.581 3600.58C835.811 3595.76 854.225 3583.64 864.469 3555.87C875.502 3537.91 884.721 3512.97 890.976 3476.62C888.828 3445.23 883.852 3432.31 879.358 3416.25C872.17 3374.03 874.866 3356.44 879.557 3343.83C880.043 3322.56 875.587 3301.29 861.602 3279.99C854.258 3256.97 849.422 3235.2 806.497 3210.02C767.412 3182.08 742.044 3161.06 625.246 3190.6Z" stroke="black" stroke-width="10"/>
<path id="path3930" d="M699.369 3596.84C714.646 3589.91 714.815 3577.81 761.055 3581.48C772.239 3580.1 783.42 3579.9 794.641 3565.18L819.158 3550.59L840.055 3533.4C856.36 3516.54 860.142 3498.33 854.709 3479.12C851.844 3457.81 847.264 3432.11 851.223 3428.25C853.375 3415.03 849.087 3393.61 844.127 3371.33C846.403 3342.57 867.853 3346.58 839.884 3266.14C838.062 3248.99 828.531 3240.22 810.947 3240.2C796.636 3237.52 792.79 3231.25 774.748 3217.7C761.926 3210.48 755.294 3203.28 726.762 3196.03C704.998 3198.65 683.261 3191.77 661.457 3208.8L623.293 3241.46C592.523 3265.72 589.228 3279.16 586.893 3292.24C578.342 3311.76 581.682 3331.3 584.918 3350.85C585.642 3367.52 591.674 3381.31 609.29 3388.85C600.829 3398.43 591.334 3403.04 587.408 3434.49C578.376 3489.1 592.263 3503.09 601.663 3525.04C620.025 3550.42 638.405 3569.53 656.78 3590.7" stroke="black" stroke-width="10"/>
<path id="path3932" d="M750.175 3252.98C733.645 3263.7 720.684 3280.4 713.764 3307.21C716.738 3328.17 721.844 3345.11 727.213 3361.55C731.733 3384.23 744.195 3382.96 737.88 3438.31C726.554 3448.76 723.754 3456.53 726.935 3462.42C747.411 3503.91 740.273 3540.56 707.594 3572.72" stroke="black" stroke-width="10"/>
<path id="path3934" d="M781.16 3522.9C771.095 3502.12 759.631 3481.99 730.54 3470.19C726.525 3458.42 712.869 3453.75 687.06 3458.01" stroke="black" stroke-width="10"/>
<path id="path3936" d="M645.562 3384.63C686.723 3381.37 722.881 3380.87 735.284 3393.47" stroke="black" stroke-width="10"/>
<path id="path3938" d="M838.586 3408.39C806.385 3399.88 784.143 3383.13 734.389 3389.16" stroke="black" stroke-width="10"/>
<path id="path3940" d="M826.906 3370.42L782.425 3392.73" stroke="black" stroke-width="10"/>
<path id="path3942" d="M649.449 3289.8C678.982 3295.34 699.627 3300.85 714.673 3306.35" stroke="black" stroke-width="10"/>
<path id="path3944" d="M688.57 3239.04C700.289 3260.91 714.957 3282.78 712.865 3304.62" stroke="black" stroke-width="10"/>
<path id="path3946" d="M841.626 3621.34C862.796 3615.08 886.066 3627.22 909.56 3641.33L941.193 3675.9C963.481 3696.07 972.825 3716.21 970.942 3736.32C968.916 3771.37 978.729 3806.46 1003.29 3841.58C1019 3884.67 1029.25 3926.32 1002.06 3957.96C985.453 3986.69 965.27 4014.05 924.797 4033.64C882.479 4050.24 845.171 4072.82 794.133 4079C760.774 4081.46 733.682 4091.9 679.941 4068.37L606.641 4021.64C594.3 4013.04 582.545 4008.23 563.311 3955.15C557.019 3905.82 532.862 3858.57 561.911 3805.13L608.424 3703.52C630.416 3677.4 645.014 3648.71 692.022 3631.31C719.421 3622.9 737.814 3609.79 789.973 3614.31L841.626 3621.34Z" stroke="black" stroke-width="10"/>
<path id="path3948" d="M915.827 3669.8C927.007 3691.96 944.416 3714.13 944.653 3736.25C950.301 3780.91 965.505 3812.02 980.619 3843.25C989.454 3865.02 1003.16 3881.16 991.267 3926.9C982.829 3955.58 974.972 3984.53 931.243 3997.44L855.914 4029.15C834.454 4038.76 805.323 4037.35 774.316 4033.26C744.127 4022.94 713.908 4023.39 683.802 3983.03C677.323 3970.98 673.518 3953.87 676.713 3923.53" stroke="black" stroke-width="10"/>
<path id="path3950" d="M662.271 3901.08C647.747 3901.24 636.468 3896.57 638.782 3871.71C642.149 3824.49 635.331 3776.28 660.925 3731.24C660.881 3705.01 659.167 3677.72 680.145 3664.9C707.914 3645.64 721.204 3612.53 779.978 3622.91C808.995 3629.03 828.283 3629.33 837.993 3623.91" stroke="black" stroke-width="10"/>
<path id="path3952" d="M836.04 3674.77C825.256 3700.67 818.633 3725.06 792.301 3756.57C803.013 3790.28 818.334 3802.37 833.844 3813.57C837.711 3823.09 843.97 3818.43 840.945 3868.76C844.739 3917.05 877.83 3933.67 896.883 3965.46" stroke="black" stroke-width="10"/>
<path id="path3954" d="M724.851 3890.03C762.974 3872.36 801.112 3848.96 839.162 3857.55" stroke="black" stroke-width="10"/>
<path id="path3956" d="M934.534 3789.68C906.545 3830.74 872.536 3827.98 840.126 3836.86" stroke="black" stroke-width="10"/>
<path id="path3958" d="M878.484 3733.5C855.981 3757.62 833.663 3781.79 834.753 3812.71" stroke="black" stroke-width="10"/>
<path id="path3960" d="M680.914 3714.91C706.78 3743.99 742.196 3760.43 792.299 3757.43" stroke="black" stroke-width="10"/>
<path id="path3962" d="M1002.67 4065.73C1091.66 4107.79 1090.37 4130.41 1093.06 4162.51C1086.32 4200.95 1088.12 4215.26 1088.33 4234.05C1089.53 4273.57 1063.65 4283.96 1047.34 4304.65C995.041 4354.41 967.181 4338.33 930.281 4346.6C896.349 4341.63 875.673 4336.69 855.988 4331.76C800.652 4318.98 805.488 4299.21 784.508 4282.44C757.61 4248.11 755.245 4204.25 769.451 4153.95C781.101 4124.02 804.742 4101.64 829.485 4079.95L890.302 4050.79C936.992 4032.43 990.481 4057.64 1002.67 4065.73Z" stroke="black" stroke-width="10"/>
<path id="path3964" d="M919.277 4062.93C899.897 4066.64 876.425 4069.39 868.382 4110.22C868.547 4127.99 862.552 4141.82 855.567 4155.02C847.132 4197.61 869.168 4225.8 888.833 4255.11C904.102 4279.62 922.998 4282.07 941.321 4288C961.304 4298.05 976.296 4291.31 986.699 4269.15C993.062 4256.5 994.378 4237.82 1009.45 4235.58C1016.26 4224.16 1017.17 4214.59 1016.79 4205.43C1008.22 4190.12 1015.17 4168.95 1017.85 4149.39C982.666 4147.71 974.018 4120.92 969.969 4089.79C953.598 4083.89 937.889 4081.83 919.277 4062.93Z" stroke="black" stroke-width="10"/>
<path id="path3966" d="M961.366 4250.98C982.236 4233 981.856 4201.48 981.533 4169.99C968.71 4117.19 945.451 4091.95 908.288 4103.43" stroke="black" stroke-width="10"/>
<path id="path3968" d="M1001.35 4217.46C999.707 4190.37 991.033 4178.23 979.715 4171.71" stroke="black" stroke-width="10"/>
<path id="path3970" d="M949.124 4088.01L951.777 4112.16" stroke="black" stroke-width="10"/>
<path id="path3870" d="M987.342 4364.85C952.052 4411.12 943.583 4444.32 947.161 4471.65C957.718 4519.19 963.181 4570.21 1015.73 4589.07C1099.6 4615.64 1117.65 4593.59 1151.73 4583.37C1190.72 4565.34 1221.38 4542.76 1243.47 4515.49C1260.46 4504.33 1259.19 4493.12 1259.88 4481.91C1257.26 4461.09 1261.97 4447.04 1263.65 4430.19C1266.22 4397.52 1251.39 4374.71 1243.03 4348.24C1218.3 4329.09 1200.18 4302.8 1159.76 4300.62L1089.96 4298.72C1046.97 4296.58 1017.64 4332.05 987.342 4364.85Z" stroke="black" stroke-width="10"/>
<path id="path3872" d="M1005.45 4374.37C1017.92 4391.05 1033.39 4410.68 1041.58 4421.02C1045.98 4428.4 1042.27 4433.6 1043.33 4445.16C1038.08 4475.18 1047.87 4473.24 1056.83 4479.68C1065.97 4486.42 1075.35 4492.71 1082.14 4503.88C1089.94 4526.3 1101.02 4521.32 1111.1 4524.65L1152.78 4531.65C1185.84 4541.11 1191.04 4526.61 1209 4525.75" stroke="black" stroke-width="10"/>
<path id="path3874" d="M1199.16 4475.72C1201.34 4487.17 1193.53 4499.95 1210.86 4509.38" stroke="black" stroke-width="10"/>
<path id="path3877" d="M1109.38 4488.43L1186.68 4400.69C1202.92 4382.02 1215.35 4377.5 1216.56 4414.56" stroke="black" stroke-width="10"/>
<path id="path3879" d="M1096.91 4409.95C1104.48 4387.84 1125.78 4365.76 1162.36 4343.73C1148.19 4348.43 1134.06 4353.24 1115.22 4344.47C1092.88 4334.06 1082.24 4346.04 1068.96 4352.98" stroke="black" stroke-width="10"/>
<path id="path3881" d="M1283.33 4525.94C1343.99 4517.83 1397.08 4517.56 1407.43 4561.59L1438.01 4647.88C1460 4713.65 1436.91 4700.34 1433.28 4721.15L1387.81 4771.9C1370.44 4788.63 1351.71 4804.45 1310.66 4805.33C1250.48 4803.21 1189.58 4802.31 1176.73 4719.65L1171.56 4623.08C1184.04 4576.93 1197.7 4531.44 1283.33 4525.94Z" stroke="black" stroke-width="10"/>
<path id="path3883" d="M1208.78 4603.34C1226.62 4657.08 1237.79 4718.7 1292.75 4728.56C1335.48 4747.09 1379.18 4776.94 1415.16 4715.93" stroke="black" stroke-width="10"/>
<path id="path3885" d="M1395.3 4686.57C1373.57 4698.85 1350.99 4713.27 1348.18 4678.69C1344.24 4642.66 1360.62 4626.04 1367.43 4600.29" stroke="black" stroke-width="10"/>
<path id="path3887" d="M1246.86 4602.57C1251.94 4581.07 1268.58 4564.68 1305 4557.03" stroke="black" stroke-width="10"/>
<path id="path3889" d="M1265.76 4650.9C1278.12 4662.11 1290.54 4652.99 1303.02 4618.23C1309.51 4591.81 1321.02 4584.68 1332.15 4576.06" stroke="black" stroke-width="10"/>
<path id="path3891" d="M1512.24 4685.14C1489.03 4717.26 1424.67 4749.29 1497.47 4781.66" stroke="black" stroke-width="10"/>
<path id="path3893" d="M1566.54 4718.89L1582.65 4793.08C1593.13 4828.79 1603.75 4814.08 1614.38 4793.15" stroke="black" stroke-width="10"/>
<path id="path3895" d="M1429.58 4747C1431.24 4773.19 1428.67 4801.94 1462.95 4808.3C1492.1 4817.85 1528.68 4827.43 1539.93 4836.94C1588.18 4862.28 1592.68 4849.01 1612.42 4849.19" stroke="black" stroke-width="10"/>
<path id="path3897" d="M1606.58 4663.82C1589.35 4618.06 1547.28 4617.54 1518.71 4639.46L1477.79 4688.5L1429.62 4732.35C1422.62 4752.87 1403.77 4751.6 1425.74 4825.45C1438.94 4865.39 1465.51 4883.23 1498.08 4891.15C1539.85 4902.55 1575.61 4895.22 1607.81 4876.76C1629.75 4855.26 1664.5 4845.11 1655.17 4795.84C1645.86 4773.69 1645.42 4768.5 1625.45 4725.94C1619.16 4705.32 1612.84 4695.16 1606.58 4663.82Z" stroke="black" stroke-width="10"/>
<path id="path3899" d="M1711.55 4733.05C1697.88 4761.59 1688.21 4793.18 1663.28 4813.11C1652.1 4823.76 1642.47 4837.4 1654.9 4893.26C1667.8 4916.54 1689.89 4930.15 1724.6 4930.51C1752.59 4925.5 1776.69 4918.37 1820.71 4922.12C1841.91 4917.25 1861.23 4923.79 1886.98 4891.25C1895.48 4875.89 1908.72 4866.1 1887.18 4815.39L1821.24 4731.6C1803.35 4718.92 1801.39 4699.41 1759.69 4696.96C1727.08 4697.9 1720.97 4716.58 1711.55 4733.05Z" stroke="black" stroke-width="10"/>
<path id="path3901" d="M1668.52 4885.54C1686.52 4888.44 1703.56 4893.99 1723.81 4888.26L1756.44 4890.93C1779.4 4894.16 1799.14 4891.23 1819.9 4890.22C1851.35 4888.66 1883.76 4887.52 1875.25 4867.95" stroke="black" stroke-width="10"/>
<path id="path4179" d="M633.23 2374.01C638.588 2386.61 641.445 2398.74 632.013 2408.49" stroke="black" stroke-width="10" stroke-linecap="round"/>
<path id="path4278" d="M3157.42 2304.03C3096.97 2309.28 3042.46 2322.96 3005.75 2354.41C2953.34 2380.17 2919.9 2407.18 2922.67 2436.55C2905.89 2481.32 2918.95 2513.84 2928.77 2547.69L2956.7 2603.26C2974.36 2635.6 3010.86 2657.13 3067.95 2666.83C3135.16 2677.43 3202.38 2690.14 3269.47 2653.77C3345.84 2626.68 3349.48 2588.24 3356.81 2550.38C3379.35 2511.54 3394.44 2464.78 3385.5 2392.44C3377.58 2359.37 3367.52 2317.33 3318.23 2298.11C3268.94 2278.9 3224.74 2288.87 3157.42 2304.03Z" stroke="black" stroke-width="10" stroke-linejoin="round"/>
<path id="path4280" d="M3337.29 2363.09C3393.41 2438.84 3354.96 2472.2 3331.78 2512.41C3338.08 2580.58 3336.2 2632.99 3287.66 2626.61C3216.09 2675.11 3163.9 2649.08 3107.01 2641.15C3098.85 2628.83 3098.33 2612.86 3075.81 2607.42C3075.81 2607.42 3025.7 2505.19 3019.2 2489.24C3012.71 2473.3 3007.48 2443.73 3041.21 2411.72C3041.21 2411.72 3093.4 2359.85 3126.93 2345.31C3142.88 2338.39 3161.66 2340.47 3178.74 2336.73C3213.76 2329.05 3282.34 2308.3 3282.34 2308.3C3315.2 2301.39 3335.63 2317.58 3337.29 2363.09Z" stroke="black" stroke-width="10"/>
<path id="path4282" d="M3106.81 2569.31C3104.67 2567.96 3142.43 2545.08 3168.92 2535.35C3182.47 2530.38 3190.56 2514.9 3194.01 2501.49C3201.09 2473.88 3172.97 2438.85 3181.92 2417C3190.88 2395.16 3209.7 2394.18 3226.27 2387.32C3237.37 2382.72 3243.96 2386.55 3261.8 2380.18" stroke="black" stroke-width="10" stroke-linecap="round"/>
<path id="path4284" d="M3128.54 2391.78C3152.14 2398.39 3182.13 2403.98 3183.4 2414.18" stroke="black" stroke-width="10" stroke-linecap="round" stroke-linejoin="round"/>
<path id="path4286" d="M3259.2 2509.78C3249.65 2505.25 3237.36 2499.78 3222.15 2504.23C3206.94 2508.68 3199 2510.07 3193.99 2497.26" stroke="black" stroke-width="10" stroke-linecap="round"/>
<path id="path4288" d="M3130.32 2501.65C3152.55 2500.78 3176.86 2513.47 3195.45 2488.81" stroke="black" stroke-width="10" stroke-linecap="round"/>
<path id="path4290" d="M3318.8 2102.56C3340 2074.94 3337.22 2034.72 3322.93 1988.46C3268.37 1869.62 3170.36 1844.01 3017.68 1935.7C2969.79 1954.08 2931.82 1989.43 2906.85 2024.71C2882.28 2059.41 2859.47 2076.11 2871.61 2137.48C2899.65 2240.85 2948.08 2321.94 3085.35 2305.97C3139.89 2299.66 3188.05 2313.24 3257.03 2261.88C3283.73 2219.85 3335.19 2222.65 3318.8 2102.56Z" stroke="black" stroke-width="10" stroke-linecap="round"/>
<path id="path4292" d="M3256.17 1949.19C3198.73 1831.1 3104.74 1924.98 3013.42 2003.32C2994.74 2024.67 2971.01 2038.09 2963.27 2076.68C2935.12 2144.74 3004.92 2183.49 3037.75 2230.03C3070.57 2276.56 3104.47 2299.77 3163.78 2281.83C3302.48 2233.21 3307.78 2169.45 3286.22 2102.64C3330.02 2003.76 3300.35 1998.56 3288.81 1970.23C3277.94 1964.53 3267.07 1961.83 3256.17 1949.19Z" stroke="black" stroke-width="10"/>
<path id="path4294" d="M3035.64 2004.67C3049.59 2011.88 3059.65 2011.74 3069.73 2011.63C3096.64 2007.83 3107.94 2021.43 3111.29 2043.92C3111.64 2058.06 3107.67 2073.58 3130.64 2080.49C3150.43 2097.66 3140.56 2105.5 3138.14 2115.69C3138.68 2131.67 3139.2 2142.4 3139.72 2150.9C3140.18 2208.27 3123.65 2207.04 3113.27 2227.02C3107.02 2233.5 3099.29 2239.52 3104.45 2249.58L3092.63 2259.47" stroke="black" stroke-width="10" stroke-linecap="round"/>
<path id="path4296" d="M3127.28 1936.83C3121.63 1948.58 3116.14 1960.33 3106.65 1972.1C3096.11 1979.6 3091.65 1995.73 3088.99 2014.4" stroke="black" stroke-width="10" stroke-linecap="round"/>
<path id="path4298" d="M3232.51 1960.51C3212.57 1961.32 3192.6 1962.1 3188.12 1977.53C3162.86 1995.3 3137.53 2013.12 3109.77 2032.66" stroke="black" stroke-width="10" stroke-linecap="round"/>
<path id="path4300" d="M3269.88 2088.6L3212.14 2095.78C3190.42 2104.7 3167.67 2110.69 3138.09 2097.38" stroke="black" stroke-width="10" stroke-linecap="round"/>
<path id="path4302" d="M3156.32 2260.72L3141.47 2248.08C3145.58 2211.94 3138.04 2206.52 3126.56 2211.5" stroke="black" stroke-width="10" stroke-linecap="round"/>
<path id="path4304" d="M3138.16 2121.32L3107.05 2118.58C3093.25 2127.63 3079.44 2133.02 3065.63 2138.41" stroke="black" stroke-width="10" stroke-linecap="round"/>
<path id="path4306" d="M3176.51 1525.42C3072.38 1439.47 2995.61 1489.11 2918.84 1538.74C2898.1 1563.2 2877.82 1587.67 2849.43 1612.15C2762.48 1691.62 2778.83 1745.56 2829.19 1791.09C2860.57 1824.2 2890.63 1856.69 2906.45 1882.45C2924.59 1900.21 2941.27 1913.84 2955.43 1920.36C3022.46 1948.98 3048.05 1909.06 3085.68 1889.05C3220.87 1821.28 3269.28 1726.89 3234.49 1606.97C3230.66 1560.73 3207.8 1537.9 3176.51 1525.42Z" stroke="black" stroke-width="10"/>
<path id="path4308" d="M3160.5 1629.69C3182.37 1533.26 3129.6 1543.93 3100.96 1519.97C3051.21 1508.6 3009.53 1480.89 2926.24 1537.31C2864.21 1619.4 2882.75 1665.49 2874.91 1723.36C2871.08 1778.62 2888.53 1812.21 2912.22 1826.09C2918.12 1855.9 2916.73 1884.43 2968.74 1910.46C3013 1948 3044.1 1915.71 3076.8 1891.88C3126.04 1879.3 3133.95 1848.53 3132.85 1805.82C3233.05 1764.38 3177.02 1686.12 3160.5 1629.69Z" stroke="black" stroke-width="10"/>
<path id="path4310" d="M2966.23 1540.03C2976.42 1551.4 2990.02 1552.96 2993.02 1585.03C2988.41 1617.91 3007.4 1650.73 3025.87 1683.55C3044.98 1701.23 3038.77 1749.15 3043.92 1783.51C3025.21 1800.47 3006.45 1800.66 2987.68 1799.14L2952.22 1828.81" stroke="black" stroke-width="10" stroke-linecap="round"/>
<path id="path4312" d="M3141.28 1642.41C3128.59 1655.5 3119.11 1670.61 3083.6 1669.32C3063.35 1666.86 3043.1 1665.61 3022.9 1677.92" stroke="black" stroke-width="10" stroke-linecap="round"/>
<path id="path4314" d="M2917.67 1654.24C2956.48 1660.58 3013.83 1658.05 3024.38 1677.92" stroke="black" stroke-width="10" stroke-linecap="round"/>
<path id="path4316" d="M3119.5 1798.81C3079.98 1815.82 3063.24 1797.97 3042.45 1786.33" stroke="black" stroke-width="10" stroke-linecap="round"/>
<path id="path4318" d="M3087.06 1851.01L3069.14 1798.94" stroke="black" stroke-width="10" stroke-linecap="round"/>
<path id="path4320" d="M2968.34 1228.74C3071.14 1242.68 3119.89 1293.11 3088.77 1397.46C3055.99 1435.76 3026.19 1476.87 2970.55 1493.53C2950.83 1493.15 2933.52 1495.03 2921.7 1502.11C2904.63 1506.55 2885.07 1506.52 2863.94 1503.66C2824.15 1483.56 2770.64 1500.28 2748.22 1433.52C2729.72 1380.1 2732.88 1333.07 2777.47 1298.23C2865.61 1228.13 2914.05 1234.03 2968.34 1228.74Z" stroke="black" stroke-width="10" stroke-linecap="round"/>
<path id="path4322" d="M2943.18 1235.84C2956.21 1250.22 2968.32 1263.74 2963.46 1279.22C2969.13 1297.15 2969.12 1302.41 2970.04 1309.02C2978.1 1323.25 2978.7 1326.91 2978.99 1330.12C2978.72 1354.81 2974.35 1360.3 2970.2 1366.77C2958.47 1399.45 2969.21 1406.34 2976.27 1417.46C2983.41 1428.48 2993.4 1423.03 2997.1 1454.03" stroke="black" stroke-width="10" stroke-linecap="round"/>
<path id="path4324" d="M2866.78 1459.99C2916.71 1443.55 2919.88 1418.33 2911.02 1390.86C2916.29 1346.66 2897.36 1320.95 2884.09 1290.92" stroke="black" stroke-width="10" stroke-linecap="round"/>
<path id="path4326" d="M2838.23 1310.75C2858.97 1313.15 2879.71 1313.77 2900.47 1323.28" stroke="black" stroke-width="10" stroke-linecap="round"/>
<path id="path4328" d="M2934.42 1282.34C2911.79 1300.82 2904.78 1315.55 2897.53 1330.33" stroke="black" stroke-width="10" stroke-linecap="round"/>
<path id="path4330" d="M2967.48 1455.51C2957.94 1446.25 2940.39 1432.45 2911.08 1411.99" stroke="black" stroke-width="10" stroke-linecap="round"/>
<path id="path4332" d="M2885.26 955.494C2971.06 983.91 2976.7 1023.12 2977.12 1063.03C2981.48 1238.58 2824.78 1235.61 2794.44 1222.11C2746.69 1227.74 2713.53 1222.51 2687.44 1212.04C2638.72 1208.48 2615.25 1180.78 2607.46 1138.09C2600.33 1115.18 2597.9 1090.01 2609.96 1057.91C2618.78 1039.98 2612.78 1022.79 2666.92 1002.59C2724 996.608 2742.07 982.838 2765.63 967.861C2799.52 932.886 2841.68 940.517 2885.26 955.494Z" stroke="black" stroke-width="10" stroke-linecap="round"/>
<path id="path4334" d="M2803.67 955.697C2803.29 964.319 2796.7 972.956 2819.16 981.522C2858.04 1011.51 2855.41 1033.7 2846.55 1054.73C2828.55 1087.26 2834.97 1102.67 2853.05 1109.89C2909.13 1161.62 2896.36 1172.23 2911.31 1199.41" stroke="black" stroke-width="10" stroke-linecap="round"/>
<path id="path4336" d="M2873.17 1172.78C2820.76 1165.71 2778.57 1146 2766.87 1088.55C2760.69 1055.29 2780.94 1036.3 2808.39 1021.21" stroke="black" stroke-width="10" stroke-linecap="round"/>
<path id="path4338" d="M2683.33 1037.9C2751.82 1044.43 2773.86 1061.15 2765.04 1081.66C2765.22 1135.79 2747.17 1122.94 2734.38 1140.36" stroke="black" stroke-width="10" stroke-linecap="round"/>
<path id="path4340" d="M2797.03 1176.42C2787.31 1164.37 2790.56 1152.29 2795.12 1140.21" stroke="black" stroke-width="10" stroke-linecap="round"/>
<path id="path4342" d="M2740.4 1022.24C2764.31 1043.15 2766.72 1053.9 2766.8 1063.55" stroke="black" stroke-width="10" stroke-linecap="round"/>
<path id="path4344" d="M2661.52 1017.26C2644.73 1052.88 2661.44 1082.07 2658.14 1107.79C2655.02 1143.65 2666.2 1174.18 2706.43 1193.88C2731.16 1207.13 2761.17 1209.83 2788.06 1211.78" stroke="black" stroke-width="10" stroke-linecap="round"/>
<path id="path4346" d="M2888.55 1492.59C2849.31 1467.2 2796.9 1488.46 2779.55 1411.82C2776.48 1387.38 2758.89 1358.54 2799.19 1302.28" stroke="black" stroke-width="10" stroke-linecap="round"/>
<path id="path4348" d="M2731.17 963.636C2788.01 945.605 2814.62 912.616 2820.66 869.443C2827.68 827.23 2819.93 786.058 2793.13 746.228C2769.69 684.199 2746.43 687.634 2723.15 683.468C2702.39 685.958 2683.51 684.826 2665.13 682.75C2609.57 680.409 2588.88 704.37 2575.49 720.045C2528.61 779.747 2533.78 814.533 2522.38 857.254C2516.52 904.425 2519.1 944.758 2544.44 966.688C2621.53 1021.52 2634.63 994.652 2666.89 992.246C2726.97 968.183 2711.51 972.509 2731.17 963.636Z" stroke="black" stroke-width="10" stroke-linecap="round"/>
<path id="path4350" d="M2766.36 902.338C2763.66 843.948 2758.5 788.551 2729.71 761.904C2701.23 733.526 2664.58 712.954 2614.43 705.292" stroke="black" stroke-width="10" stroke-linecap="round"/>
<path id="path4352" d="M2591 757.077C2557.01 882.835 2542.27 912.514 2631.1 834.568" stroke="black" stroke-width="10" stroke-linecap="round"/>
<path id="path4354" d="M2670.2 878.438C2595.36 964.575 2645 951.836 2725.6 914.51" stroke="black" stroke-width="10" stroke-linecap="round"/>
<path id="path4356" d="M2554.33 608.884C2414.07 521.318 2442.81 546.877 2382.78 527.41C2361.85 520.298 2344.48 519.234 2335.65 532.7L2303.1 563.817C2280.98 590.254 2282.45 595.867 2279.65 605.257C2269.23 687.005 2281.27 685.978 2283.59 720.771C2299.63 750.385 2319 776.815 2351.77 790.433C2372 804.001 2400 802.669 2429.75 797.998L2478.67 786.669C2497.85 789.412 2514.38 777.246 2531.2 766.709C2566.69 743.017 2575.86 709.39 2588.06 676.907C2590.52 655.897 2584.23 637.285 2569.78 620.915L2554.33 608.884Z" stroke="black" stroke-width="10" stroke-linecap="round"/>
<path id="path4358" d="M2514.85 757.267C2533.68 729.424 2563.82 706.926 2527.26 652.919C2493.72 628.033 2467.48 620.351 2438.29 605.724C2413.16 593.695 2388.23 582.028 2370.24 583.479C2295.32 576.638 2326.16 593.661 2305.92 599.157" stroke="black" stroke-width="10" stroke-linecap="round"/>
<path id="path4360" d="M2357.68 631.789C2351.27 663.694 2345.29 696.427 2327.06 706.007" stroke="black" stroke-width="10" stroke-linecap="round"/>
<path id="path4362" d="M2400.65 764.448C2398 737.276 2439.65 725.781 2473.93 711.676" stroke="black" stroke-width="10" stroke-linecap="round"/>
<path id="path4364" d="M2280.41 555.252C2279.73 561.26 2242.84 623.122 2233.54 651.064C2220.96 681.232 2200.94 708.504 2147.62 722.834C2104.08 717.749 2059.92 716.662 2023.27 667.106L1933.17 537.15L1916.74 495.81C1904.87 465.959 1930.57 438.511 1954.62 426.746L2019.84 410.203C2057.94 407.882 2083.22 397.263 2157.66 418.481L2227.5 432.963C2252.91 443.619 2286.84 439.448 2287.5 493.162C2286.16 513.694 2294.62 532.649 2280.41 555.252Z" stroke="black" stroke-width="10" stroke-linecap="round"/>
<path id="path4366" d="M2213.55 634.734L2229.52 507.963C2220.86 507.984 2239.27 482.37 2206.75 470.948C2088.04 426.98 2019.43 459.209 2000.06 468.877C1980.7 478.544 1963.89 504.98 1967.6 532.754C1971.32 560.528 1979.45 567.198 1984.96 580.99" stroke="black" stroke-width="10" stroke-linecap="round"/>
<path id="path4368" d="M3315.36 3078.68C3320.98 3041.24 3346.15 3037.65 3325.9 2955.37C3315.35 2896.67 3285.09 2848.18 3216.74 2819.43C3175.37 2813.83 3137.66 2785.77 3089.83 2819.75C3075.89 2831.33 3065.5 2837.51 3056.35 2842.24C3037.33 2861.07 3000.38 2862.18 2982.27 2933.81C2982.28 2961.11 2989.28 2971.68 2976.19 3030.39C2972.03 3053.01 2959.96 3067.2 2973.68 3108.84C2988.47 3128.11 2987.14 3148.51 3032.76 3165.6C3045.28 3176.6 3144.77 3186.97 3176.95 3185.93C3209.14 3184.88 3207.54 3195.34 3256.63 3151.25C3276.1 3127.87 3293.79 3118.39 3315.36 3078.68Z" stroke="black" stroke-width="10"/>
<path id="path4370" d="M3087.19 2849.06C3123.98 2796.9 3165.05 2820.09 3206.87 2856.53C3230.64 2883.68 3237.99 2912.29 3235.21 2941.8C3234.18 2959.53 3226.08 2971.51 3208.1 2975.49C3219.96 2981.8 3224.71 2993.55 3224.51 3009.08L3208.44 3098.78C3193.12 3135.74 3180.95 3135.54 3167.78 3147.16C3160.75 3150.54 3153.64 3153.84 3144.23 3154.97C3131.23 3150.8 3118.23 3148.25 3105.14 3112.83C3116.21 3109.45 3070.23 3092.64 3104.08 3059.38C3114.99 3048.04 3078.12 3011.28 3099.34 2980.94C3110.19 2947.55 3120.53 2918.7 3129.04 2905.86C3106.13 2902.32 3112.97 2882.5 3105.38 2870.57" stroke="black" stroke-width="10"/>
<path id="path4372" d="M3156.22 2898.9L3129.04 2905.86" stroke="black" stroke-width="10"/>
<path id="path4374" d="M3049.46 2974.17C3063.86 2980.33 3076.33 2990.83 3097.53 2981.81" stroke="black" stroke-width="10"/>
<path id="path4376" d="M3137.69 3084.3C3120.76 3081.82 3108.08 3073.64 3103.17 3055.07" stroke="black" stroke-width="10"/>
<path id="path4378" d="M3169.12 2974.73C3146.63 2970.6 3121.87 2957.93 3103.84 2970.58" stroke="black" stroke-width="10"/>
<path id="path4380" d="M3097.97 3143.88C3083.65 3143.46 3070.11 3144.61 3053.54 3139.68C3029.86 3114.52 3021.36 3114.49 3006.3 3103.59C3003.47 3102.78 2973.62 3073.22 2995.22 3028.61C3007.14 3005.79 3010.04 2997.91 3005.06 2981.17C3016.77 2942.15 3010.42 2933.37 3013.02 2909.6" stroke="black" stroke-width="10"/>
<path id="path4382" d="M3188.75 3191.07C3222.55 3206.01 3257.05 3215.51 3288.63 3247.72C3314.77 3267.31 3334.23 3302.56 3338.83 3372.61C3341.02 3421.86 3353.58 3469.85 3319.3 3523.53C3289.88 3547.12 3307.9 3555.15 3227.94 3595.31C3186.75 3611.72 3157.18 3647.91 3093.86 3626.68C3063.23 3618.43 3052.89 3621.69 3000.42 3601.05C2978.19 3596.23 2959.78 3584.11 2949.53 3556.34C2938.5 3538.38 2929.28 3513.44 2923.02 3477.1C2925.17 3445.7 2930.15 3432.78 2934.64 3416.72C2941.83 3374.5 2939.13 3356.91 2934.44 3344.3C2933.96 3323.04 2938.41 3301.76 2952.4 3280.46C2959.74 3257.44 2964.58 3235.67 3007.5 3210.49C3046.59 3182.55 3071.96 3161.53 3188.75 3191.07Z" stroke="black" stroke-width="10"/>
<path id="path4384" d="M3114.63 3597.31C3099.35 3590.38 3099.18 3578.28 3052.94 3581.95C3041.76 3580.57 3030.58 3580.37 3019.36 3565.65L2994.84 3551.06L2973.95 3533.87C2957.64 3517.01 2953.86 3498.8 2959.29 3479.59C2962.16 3458.28 2966.74 3432.59 2962.78 3428.72C2960.62 3415.51 2964.91 3394.08 2969.87 3371.8C2967.6 3343.04 2946.15 3347.05 2974.12 3266.61C2975.94 3249.46 2985.47 3240.69 3003.05 3240.68C3017.36 3238 3021.21 3231.72 3039.25 3218.17C3052.07 3210.95 3058.71 3203.75 3087.24 3196.5C3109 3199.12 3130.74 3192.24 3152.54 3209.27L3190.71 3241.93C3221.48 3266.19 3224.77 3279.64 3227.11 3292.71C3235.66 3312.23 3232.32 3331.78 3229.08 3351.33C3228.36 3367.99 3222.33 3381.78 3204.71 3389.32C3213.17 3398.91 3222.67 3403.51 3226.59 3434.96C3235.62 3489.57 3221.74 3503.57 3212.34 3525.52C3193.97 3550.89 3175.59 3570.01 3157.22 3591.17" stroke="black" stroke-width="10"/>
<path id="path4386" d="M3063.83 3253.46C3080.36 3264.17 3093.32 3280.87 3100.24 3307.68C3097.26 3328.65 3092.16 3345.58 3086.79 3362.03C3082.27 3384.7 3069.8 3383.43 3076.12 3438.78C3087.45 3449.23 3090.25 3457 3087.07 3462.89C3066.59 3504.39 3073.73 3541.03 3106.41 3573.2" stroke="black" stroke-width="10"/>
<path id="path4388" d="M3032.84 3523.38C3042.9 3502.59 3054.37 3482.46 3083.46 3470.66C3087.47 3458.89 3101.13 3454.22 3126.94 3458.48" stroke="black" stroke-width="10"/>
<path id="path4390" d="M3168.44 3385.1C3127.28 3381.84 3091.12 3381.34 3078.72 3393.94" stroke="black" stroke-width="10"/>
<path id="path4392" d="M2975.41 3408.86C3007.62 3400.35 3029.86 3383.61 3079.61 3389.63" stroke="black" stroke-width="10"/>
<path id="path4394" d="M2987.09 3370.9L3031.58 3393.2" stroke="black" stroke-width="10"/>
<path id="path4396" d="M3164.55 3290.28C3135.02 3295.81 3114.37 3301.32 3099.33 3306.82" stroke="black" stroke-width="10"/>
<path id="path4398" d="M3125.43 3239.51C3113.71 3261.38 3099.04 3283.26 3101.13 3305.09" stroke="black" stroke-width="10"/>
<path id="path4400" d="M2972.37 3621.81C2951.2 3615.55 2927.93 3627.69 2904.44 3641.81L2872.81 3676.37C2850.52 3696.54 2841.17 3716.68 2843.06 3736.79C2845.08 3771.85 2835.27 3806.93 2810.71 3842.05C2795 3885.15 2784.75 3926.79 2811.94 3958.43C2828.55 3987.16 2848.73 4014.52 2889.2 4034.11C2931.52 4050.71 2968.83 4073.3 3019.87 4079.47C3053.23 4081.93 3080.32 4092.38 3134.06 4068.85L3207.36 4022.11C3219.7 4013.52 3231.45 4008.71 3250.69 3955.62C3256.98 3906.29 3281.14 3859.04 3252.09 3805.61L3205.58 3703.99C3183.58 3677.87 3168.99 3649.18 3121.98 3631.78C3094.58 3623.37 3076.19 3610.27 3024.03 3614.78L2972.37 3621.81Z" stroke="black" stroke-width="10"/>
<path id="path4402" d="M2898.17 3670.27C2886.99 3692.43 2869.58 3714.6 2869.35 3736.73C2863.7 3781.38 2848.5 3812.49 2833.38 3843.72C2824.55 3865.49 2810.84 3881.64 2822.73 3927.37C2831.17 3956.06 2839.03 3985 2882.76 3997.92L2958.09 4029.63C2979.55 4039.23 3008.68 4037.83 3039.68 4033.73C3069.87 4023.42 3100.09 4023.86 3130.2 3983.51C3136.68 3971.45 3140.48 3954.34 3137.29 3924" stroke="black" stroke-width="10"/>
<path id="path4404" d="M3151.73 3901.55C3166.25 3901.71 3177.53 3897.04 3175.22 3872.18C3171.85 3824.96 3178.67 3776.76 3153.07 3731.71C3153.12 3705.48 3154.83 3678.2 3133.86 3665.37C3106.09 3646.11 3092.8 3613 3034.02 3623.38C3005.01 3629.5 2985.72 3629.81 2976.01 3624.39" stroke="black" stroke-width="10"/>
<path id="path4406" d="M2977.96 3675.25C2988.74 3701.14 2995.37 3725.54 3021.7 3757.04C3010.99 3790.75 2995.67 3802.84 2980.16 3814.04C2976.29 3823.56 2970.03 3818.9 2973.06 3869.23C2969.26 3917.52 2936.17 3934.14 2917.12 3965.93" stroke="black" stroke-width="10"/>
<path id="path4408" d="M3089.15 3890.5C3051.03 3872.84 3012.89 3849.43 2974.84 3858.02" stroke="black" stroke-width="10"/>
<path id="path4410" d="M2879.47 3790.15C2907.45 3831.21 2941.46 3828.46 2973.87 3837.33" stroke="black" stroke-width="10"/>
<path id="path4412" d="M2935.52 3733.98C2958.02 3758.09 2980.34 3782.27 2979.25 3813.18" stroke="black" stroke-width="10"/>
<path id="path4414" d="M3133.09 3715.38C3107.22 3744.46 3071.8 3760.91 3021.7 3757.9" stroke="black" stroke-width="10"/>
<path id="path4416" d="M2811.33 4066.2C2722.34 4108.27 2723.63 4130.88 2720.94 4162.98C2727.68 4201.43 2725.88 4215.73 2725.67 4234.53C2724.47 4274.05 2750.35 4284.43 2766.66 4305.12C2818.96 4354.88 2846.82 4338.8 2883.72 4347.07C2917.65 4342.1 2938.33 4337.16 2958.01 4332.23C3013.35 4319.46 3008.51 4299.68 3029.49 4282.91C3056.39 4248.58 3058.75 4204.72 3044.55 4154.42C3032.9 4124.49 3009.26 4102.11 2984.52 4080.43L2923.7 4051.26C2877.01 4032.9 2823.52 4058.11 2811.33 4066.2Z" stroke="black" stroke-width="10"/>
<path id="path4418" d="M2894.72 4063.41C2914.1 4067.11 2937.57 4069.86 2945.62 4110.7C2945.45 4128.46 2951.45 4142.29 2958.43 4155.49C2966.87 4198.08 2944.83 4226.27 2925.17 4255.58C2909.9 4280.09 2891 4282.54 2872.68 4288.47C2852.7 4298.52 2837.7 4291.78 2827.3 4269.62C2820.94 4256.97 2819.62 4238.29 2804.55 4236.05C2797.74 4224.63 2796.83 4215.06 2797.21 4205.9C2805.78 4190.59 2798.83 4169.42 2796.15 4149.86C2831.33 4148.18 2839.98 4121.4 2844.03 4090.26C2860.4 4084.36 2876.11 4082.3 2894.72 4063.41Z" stroke="black" stroke-width="10"/>
<path id="path4420" d="M2852.63 4251.45C2831.76 4233.48 2832.14 4201.95 2832.47 4170.46C2845.29 4117.66 2868.55 4092.42 2905.71 4103.9" stroke="black" stroke-width="10"/>
<path id="path4422" d="M2812.65 4217.93C2814.29 4190.84 2822.97 4178.7 2834.28 4172.18" stroke="black" stroke-width="10"/>
<path id="path4424" d="M2864.88 4088.48L2862.22 4112.63" stroke="black" stroke-width="10"/>
<path id="path4426" d="M2826.66 4365.32C2861.95 4411.6 2870.42 4444.8 2866.84 4472.12C2856.28 4519.66 2850.82 4570.68 2798.27 4589.54C2714.4 4616.11 2696.35 4594.06 2662.27 4583.84C2623.28 4565.81 2592.62 4543.23 2570.53 4515.96C2553.54 4504.8 2554.81 4493.59 2554.12 4482.38C2556.74 4461.56 2552.03 4447.51 2550.35 4430.66C2547.78 4397.99 2562.61 4375.19 2570.97 4348.71C2595.7 4329.56 2613.82 4303.27 2654.24 4301.09L2724.04 4299.19C2767.03 4297.05 2796.36 4332.52 2826.66 4365.32Z" stroke="black" stroke-width="10"/>
<path id="path4428" d="M2808.55 4374.85C2796.08 4391.52 2780.61 4411.16 2772.42 4421.49C2768.02 4428.87 2771.73 4434.07 2770.67 4445.63C2775.92 4475.65 2766.13 4473.71 2757.17 4480.15C2748.03 4486.89 2738.65 4493.18 2731.86 4504.35C2724.06 4526.77 2712.98 4521.79 2702.9 4525.12L2661.22 4532.12C2628.16 4541.58 2622.96 4527.08 2605 4526.22" stroke="black" stroke-width="10"/>
<path id="path4430" d="M2614.84 4476.2C2612.66 4487.64 2620.47 4500.42 2603.15 4509.85" stroke="black" stroke-width="10"/>
<path id="path4432" d="M2704.62 4488.9L2627.32 4401.16C2611.08 4382.49 2598.65 4377.98 2597.44 4415.03" stroke="black" stroke-width="10"/>
<path id="path4434" d="M2717.09 4410.42C2709.52 4388.31 2688.22 4366.24 2651.64 4344.2C2665.81 4348.9 2679.94 4353.71 2698.78 4344.94C2721.12 4334.53 2731.76 4346.51 2745.04 4353.45" stroke="black" stroke-width="10"/>
<path id="path4436" d="M2530.67 4526.41C2470.01 4518.3 2416.92 4518.04 2406.57 4562.06L2375.99 4648.35C2354 4714.12 2377.09 4700.81 2380.72 4721.62L2426.19 4772.37C2443.56 4789.1 2462.29 4804.92 2503.34 4805.8C2563.52 4803.69 2624.42 4802.78 2637.26 4720.12L2642.44 4623.55C2629.96 4577.4 2616.3 4531.92 2530.67 4526.41Z" stroke="black" stroke-width="10"/>
<path id="path4438" d="M2605.22 4603.81C2587.38 4657.55 2576.21 4719.17 2521.25 4729.03C2478.52 4747.56 2434.82 4777.41 2398.84 4716.4" stroke="black" stroke-width="10"/>
<path id="path4440" d="M2418.7 4687.04C2440.43 4699.32 2463.01 4713.74 2465.82 4679.16C2469.76 4643.13 2453.38 4626.52 2446.57 4600.76" stroke="black" stroke-width="10"/>
<path id="path4442" d="M2567.14 4603.05C2562.06 4581.54 2545.42 4565.15 2509 4557.5" stroke="black" stroke-width="10"/>
<path id="path4444" d="M2548.24 4651.37C2535.88 4662.58 2523.46 4653.46 2510.98 4618.7C2504.49 4592.28 2492.98 4585.15 2481.85 4576.53" stroke="black" stroke-width="10"/>
<path id="path4446" d="M2301.76 4685.61C2324.97 4717.74 2389.33 4749.76 2316.53 4782.13" stroke="black" stroke-width="10"/>
<path id="path4448" d="M2247.46 4719.37L2231.35 4793.55C2220.87 4829.26 2210.25 4814.55 2199.62 4793.63" stroke="black" stroke-width="10"/>
<path id="path4450" d="M2384.42 4747.47C2382.76 4773.66 2385.33 4802.41 2351.05 4808.77C2321.9 4818.32 2285.32 4827.9 2274.07 4837.41C2225.82 4862.75 2221.32 4849.48 2201.58 4849.66" stroke="black" stroke-width="10"/>
<path id="path4452" d="M2207.42 4664.29C2224.65 4618.54 2266.72 4618.01 2295.29 4639.93L2336.21 4688.97L2384.38 4732.82C2391.38 4753.34 2410.23 4752.08 2388.26 4825.92C2375.06 4865.86 2348.49 4883.71 2315.92 4891.62C2274.15 4903.03 2238.39 4895.69 2206.19 4877.24C2184.25 4855.73 2149.5 4845.58 2158.83 4796.31C2168.14 4774.16 2168.58 4768.98 2188.55 4726.41C2194.84 4705.79 2201.16 4695.63 2207.42 4664.29Z" stroke="black" stroke-width="10"/>
<path id="path4454" d="M2102.45 4733.52C2116.12 4762.06 2125.79 4793.65 2150.72 4813.58C2161.9 4824.23 2171.53 4837.87 2159.1 4893.73C2146.2 4917.01 2124.11 4930.63 2089.4 4930.98C2061.41 4925.97 2037.31 4918.84 1993.29 4922.6C1972.09 4917.73 1952.77 4924.26 1927.02 4891.72C1918.52 4876.36 1905.28 4866.58 1926.82 4815.86L1992.76 4732.07C2010.65 4719.4 2012.61 4699.88 2054.31 4697.43C2086.92 4698.38 2093.03 4717.06 2102.45 4733.52Z" stroke="black" stroke-width="10"/>
<path id="path4456" d="M2145.48 4886.01C2127.48 4888.91 2110.44 4894.46 2090.19 4888.73L2057.56 4891.4C2034.6 4894.63 2014.86 4891.7 1994.1 4890.7C1962.65 4889.13 1930.24 4887.99 1938.75 4868.42" stroke="black" stroke-width="10"/>
<path id="path4458" d="M3180.77 2374.48C3175.41 2387.09 3172.55 2399.21 3181.99 2408.96" stroke="black" stroke-width="10" stroke-linecap="round"/>
<g id="text3204">
<path id="path3329" d="M3154.69 4414.53L3182.31 4412.52C3184.35 4424.07 3189.1 4432.75 3196.56 4438.56C3204.01 4444.38 3213 4447.29 3223.52 4447.29C3236.19 4447.29 3246.91 4443.19 3255.68 4434.99C3264.45 4426.79 3268.83 4415.91 3268.83 4402.35C3268.83 4389.47 3264.62 4379.3 3256.19 4371.85C3247.76 4364.4 3236.73 4360.68 3223.09 4360.68C3214.61 4360.68 3206.96 4362.33 3200.14 4365.64C3193.32 4368.94 3187.96 4373.23 3184.06 4378.5L3159.36 4375.74L3180.12 4281.23H3286.66V4302.82H3201.16L3189.62 4352.27C3202.48 4344.57 3215.97 4340.72 3230.1 4340.72C3248.81 4340.72 3264.59 4346.29 3277.46 4357.42C3290.32 4368.55 3296.75 4382.86 3296.75 4400.34C3296.75 4417 3291.1 4431.39 3279.79 4443.52C3266.06 4458.41 3247.3 4465.86 3223.52 4465.86C3204.04 4465.86 3188.13 4461.18 3175.8 4451.8C3163.48 4442.43 3156.44 4430.01 3154.69 4414.53Z" fill="black"/>
</g>
<g id="text3208">
<path id="path3332" d="M3471.13 3918.02L3444.97 3919.78C3442.63 3910.91 3439.32 3904.47 3435.03 3900.45C3427.92 3894.01 3419.15 3890.78 3408.72 3890.78C3400.34 3890.78 3392.98 3892.79 3386.65 3896.81C3378.37 3902 3371.84 3909.57 3367.07 3919.53C3362.29 3929.48 3359.81 3943.67 3359.61 3962.08C3365.95 3953.79 3373.69 3947.64 3382.85 3943.63C3392.01 3939.61 3401.61 3937.6 3411.64 3937.6C3429.18 3937.6 3444.11 3943.14 3456.44 3954.23C3468.77 3965.32 3474.93 3979.65 3474.93 3997.22C3474.93 4008.77 3472.03 4019.5 3466.23 4029.42C3460.44 4039.33 3452.47 4046.92 3442.34 4052.2C3432.2 4057.47 3420.71 4060.1 3407.84 4060.1C3385.92 4060.1 3368.04 4053.18 3354.2 4039.33C3340.37 4025.48 3333.45 4002.66 3333.45 3970.86C3333.45 3935.3 3341.1 3909.44 3356.4 3893.29C3369.75 3879.24 3387.72 3872.21 3410.33 3872.21C3427.19 3872.21 3441 3876.27 3451.76 3884.38C3462.53 3892.5 3468.99 3903.71 3471.13 3918.02ZM3363.7 3997.35C3363.7 4005.13 3365.63 4012.58 3369.48 4019.69C3373.33 4026.8 3378.71 4032.22 3385.63 4035.94C3392.55 4039.67 3399.81 4041.53 3407.41 4041.53C3418.51 4041.53 3428.06 4037.68 3436.05 4029.98C3444.04 4022.28 3448.04 4011.82 3448.04 3998.6C3448.04 3985.88 3444.09 3975.86 3436.2 3968.54C3428.31 3961.22 3418.37 3957.56 3406.38 3957.56C3394.49 3957.56 3384.41 3961.22 3376.13 3968.54C3367.85 3975.86 3363.7 3985.46 3363.7 3997.35Z" fill="black"/>
</g>
<g id="text3212">
<path id="path3335" d="M3467 3409.9V3388.18H3605.7V3405.75C3592.06 3418.22 3578.54 3434.79 3565.14 3455.46C3551.74 3476.13 3541.39 3497.38 3534.08 3519.22C3528.82 3534.62 3525.46 3551.48 3524 3569.8H3496.96C3497.25 3555.33 3500.57 3537.84 3506.9 3517.34C3513.23 3496.84 3522.32 3477.07 3534.16 3458.03C3546 3438.99 3558.59 3422.95 3571.94 3409.9H3467Z" fill="black"/>
</g>
<g id="text3216">
<path id="path3338" d="M3549.84 2994.13C3538.93 2990.7 3530.84 2985.8 3525.58 2979.44C3520.32 2973.09 3517.68 2965.47 3517.68 2956.6C3517.68 2943.21 3523.29 2931.96 3534.49 2922.84C3545.7 2913.72 3560.61 2909.16 3579.22 2909.16C3597.92 2909.16 3612.98 2913.82 3624.38 2923.15C3635.78 2932.48 3641.48 2943.84 3641.48 2957.23C3641.48 2965.76 3638.87 2973.19 3633.66 2979.51C3628.45 2985.82 3620.53 2990.7 3609.91 2994.13C3623.06 2997.81 3633.07 3003.75 3639.94 3011.95C3646.81 3020.15 3650.25 3029.94 3650.25 3041.32C3650.25 3057.05 3643.77 3070.28 3630.81 3080.99C3617.85 3091.7 3600.8 3097.05 3579.65 3097.05C3558.51 3097.05 3541.46 3091.68 3528.5 3080.92C3515.54 3070.17 3509.06 3056.76 3509.06 3040.7C3509.06 3028.73 3512.59 3018.71 3519.66 3010.63C3526.72 3002.56 3536.78 2997.06 3549.84 2994.13ZM3544.58 2955.85C3544.58 2964.55 3547.84 2971.66 3554.37 2977.19C3560.9 2982.71 3569.37 2985.47 3579.8 2985.47C3589.93 2985.47 3598.24 2982.73 3604.72 2977.25C3611.2 2971.77 3614.44 2965.05 3614.44 2957.1C3614.44 2948.82 3611.1 2941.85 3604.43 2936.2C3597.75 2930.56 3589.45 2927.73 3579.51 2927.73C3569.47 2927.73 3561.14 2930.49 3554.52 2936.02C3547.89 2941.54 3544.58 2948.15 3544.58 2955.85ZM3536.1 3040.82C3536.1 3047.26 3537.88 3053.5 3541.43 3059.52C3544.99 3065.55 3550.28 3070.21 3557.29 3073.52C3564.31 3076.82 3571.86 3078.48 3579.95 3078.48C3592.52 3078.48 3602.89 3075 3611.08 3068.06C3619.26 3061.11 3623.36 3052.28 3623.36 3041.57C3623.36 3030.7 3619.14 3021.7 3610.71 3014.59C3602.28 3007.48 3591.74 3003.92 3579.07 3003.92C3566.7 3003.92 3556.44 3007.43 3548.3 3014.46C3540.17 3021.49 3536.1 3030.28 3536.1 3040.82Z" fill="black"/>
</g>
<g id="text3216_2">
<path id="path3338_2" d="M182.738 2477.1C171.825 2473.67 163.738 2468.78 158.476 2462.42C153.215 2456.06 150.584 2448.44 150.584 2439.57C150.584 2426.18 156.187 2414.93 167.392 2405.81C178.597 2396.69 193.505 2392.13 212.116 2392.13C230.824 2392.13 245.878 2396.79 257.278 2406.12C268.678 2415.45 274.378 2426.81 274.378 2440.2C274.378 2448.74 271.772 2456.16 266.559 2462.48C261.346 2468.8 253.429 2473.67 242.808 2477.1C255.962 2480.78 265.974 2486.72 272.844 2494.92C279.713 2503.13 283.147 2512.92 283.148 2524.3C283.147 2540.03 276.668 2553.25 263.709 2563.96C250.749 2574.67 233.698 2580.02 212.554 2580.02C191.41 2580.02 174.359 2574.65 161.4 2563.9C148.44 2553.14 141.961 2539.73 141.961 2523.67C141.961 2511.7 145.493 2501.68 152.557 2493.61C159.621 2485.53 169.682 2480.03 182.738 2477.1ZM177.477 2438.82C177.477 2447.52 180.741 2454.63 187.269 2460.16C193.798 2465.68 202.274 2468.44 212.7 2468.44C222.834 2468.44 231.14 2465.7 237.62 2460.22C244.099 2454.74 247.339 2448.02 247.339 2440.08C247.339 2431.79 244.002 2424.83 237.328 2419.18C230.653 2413.53 222.347 2410.7 212.408 2410.7C202.372 2410.7 194.041 2413.47 187.415 2418.99C180.79 2424.51 177.477 2431.12 177.477 2438.82ZM169 2523.79C169 2530.24 170.778 2536.47 174.334 2542.49C177.891 2548.52 183.177 2553.18 190.192 2556.49C197.208 2559.8 204.759 2561.45 212.846 2561.45C225.416 2561.45 235.793 2557.98 243.978 2551.03C252.162 2544.08 256.255 2535.26 256.255 2524.55C256.255 2513.67 252.041 2504.67 243.612 2497.56C235.184 2490.45 224.636 2486.89 211.97 2486.89C199.595 2486.89 189.34 2490.41 181.204 2497.44C173.068 2504.46 169 2513.25 169 2523.79Z" fill="black"/>
</g>
<g id="text3212_2">
<path id="path3335_2" d="M214.519 1963.82V1942.1H353.221V1959.68C339.579 1972.14 326.06 1988.71 312.662 2009.38C299.265 2030.05 288.912 2051.3 281.604 2073.14C276.342 2088.54 272.981 2105.4 271.519 2123.72H244.481C244.773 2109.25 248.086 2091.76 254.419 2071.26C260.753 2050.76 269.839 2030.99 281.677 2011.95C293.516 1992.92 306.11 1976.87 319.459 1963.82H214.519Z" fill="black"/>
</g>
<g id="text3208_2">
<path id="path3332_2" d="M421.601 1541.89L395.439 1543.65C393.1 1534.78 389.787 1528.34 385.5 1524.32C378.387 1517.88 369.618 1514.66 359.192 1514.66C350.812 1514.66 343.456 1516.66 337.122 1520.68C328.84 1525.87 322.312 1533.44 317.538 1543.4C312.763 1553.36 310.278 1567.54 310.084 1585.95C316.417 1577.66 324.163 1571.51 333.322 1567.5C342.481 1563.48 352.079 1561.47 362.115 1561.47C379.654 1561.47 394.586 1567.02 406.912 1578.1C419.238 1589.19 425.4 1603.52 425.401 1621.09C425.4 1632.64 422.502 1643.37 416.704 1653.29C410.907 1663.2 402.941 1670.8 392.808 1676.07C382.674 1681.34 371.177 1683.98 358.315 1683.98C336.392 1683.98 318.512 1677.05 304.676 1663.2C290.84 1649.35 283.922 1626.53 283.922 1594.73C283.922 1559.17 291.57 1533.32 306.868 1517.17C320.217 1503.11 338.194 1496.08 360.8 1496.08C377.656 1496.08 391.468 1500.14 402.235 1508.26C413.002 1516.37 419.457 1527.58 421.601 1541.89ZM314.176 1621.22C314.176 1629 316.1 1636.45 319.949 1643.56C323.798 1650.67 329.181 1656.09 336.099 1659.81C343.017 1663.54 350.276 1665.4 357.877 1665.4C368.984 1665.4 378.533 1661.55 386.523 1653.85C394.513 1646.15 398.508 1635.69 398.508 1622.47C398.508 1609.75 394.562 1599.73 386.669 1592.41C378.777 1585.09 368.838 1581.43 356.853 1581.43C344.966 1581.43 334.881 1585.09 326.599 1592.41C318.317 1599.73 314.176 1609.34 314.176 1621.22Z" fill="black"/>
</g>
<g id="text3204_2">
<path id="path3329_2" d="M413.264 1288.36L440.887 1286.35C442.933 1297.9 447.683 1306.58 455.137 1312.39C462.591 1318.21 471.58 1321.12 482.103 1321.12C494.77 1321.12 505.488 1317.02 514.258 1308.82C523.027 1300.62 527.411 1289.74 527.412 1276.18C527.411 1263.3 523.197 1253.13 514.769 1245.68C506.341 1238.24 495.306 1234.51 481.665 1234.51C473.188 1234.51 465.539 1236.17 458.718 1239.47C451.897 1242.78 446.539 1247.06 442.641 1252.34L417.941 1249.57L438.695 1155.06H545.243V1176.65H459.741L448.195 1226.1C461.057 1218.41 474.552 1214.56 488.68 1214.56C507.388 1214.56 523.173 1220.12 536.035 1231.25C548.896 1242.38 555.327 1256.69 555.327 1274.18C555.327 1290.83 549.676 1305.22 538.373 1317.35C524.634 1332.25 505.878 1339.69 482.103 1339.69C462.616 1339.69 446.709 1335.01 434.383 1325.64C422.057 1316.26 415.018 1303.84 413.264 1288.36Z" fill="black"/>
</g>
<g id="text3200">
<path id="path3326" d="M665.005 997.048V952.993H572.05V932.283L669.828 813.044H691.313V932.283H720.252V952.993H691.313V997.048H665.005ZM665.005 932.283V849.317L597.919 932.283H665.005Z" fill="black"/>
</g>
<g id="text3196">
<path id="path3323" d="M817.063 688.213L843.372 685.201C846.392 698.003 851.532 707.229 858.791 712.877C866.05 718.525 874.892 721.349 885.318 721.349C897.693 721.349 908.143 717.667 916.669 710.304C925.194 702.94 929.457 693.819 929.457 682.941C929.457 672.566 925.511 664.01 917.619 657.274C909.726 650.538 899.69 647.17 887.511 647.17C882.541 647.17 876.354 648.007 868.949 649.68L871.872 629.849C873.626 630.016 875.039 630.1 876.111 630.1C887.316 630.1 897.4 627.59 906.365 622.569C915.329 617.548 919.811 609.808 919.811 599.349C919.811 591.065 916.547 584.203 910.019 578.764C903.49 573.325 895.062 570.606 884.734 570.606C874.503 570.606 865.977 573.367 859.156 578.89C852.336 584.413 847.951 592.697 846.002 603.742L819.694 599.725C822.91 584.58 830.217 572.844 841.618 564.518C853.018 556.193 867.195 552.03 884.149 552.03C895.841 552.03 906.608 554.185 916.45 558.494C926.291 562.803 933.818 568.681 939.031 576.128C944.243 583.576 946.85 591.483 946.85 599.851C946.85 607.8 944.365 615.038 939.396 621.565C934.427 628.092 927.07 633.28 917.326 637.129C929.993 639.639 939.834 644.848 946.85 652.755C953.865 660.663 957.373 670.557 957.373 682.439C957.373 698.505 950.552 712.124 936.911 723.294C923.27 734.465 906.024 740.051 885.172 740.051C866.367 740.051 850.752 735.239 838.329 725.616C825.906 715.994 818.817 703.526 817.063 688.213Z" fill="black"/>
</g>
<g id="text3192">
<path id="path3320" d="M1301.52 426.058V447.772H1159.9C1159.7 442.333 1160.72 437.103 1162.97 432.082C1166.57 423.798 1172.34 415.64 1180.28 407.607C1188.23 399.574 1199.7 390.286 1214.7 379.743C1237.99 363.342 1253.73 350.352 1261.91 340.77C1270.1 331.19 1274.19 322.132 1274.19 313.597C1274.19 304.643 1270.46 297.092 1263.01 290.941C1255.55 284.791 1245.84 281.716 1233.85 281.716C1221.18 281.716 1211.05 284.979 1203.45 291.506C1195.85 298.033 1192 307.07 1191.9 318.617L1164.87 316.232C1166.72 298.912 1173.68 285.712 1185.77 276.633C1197.85 267.554 1214.07 263.014 1234.44 263.014C1254.99 263.014 1271.27 267.909 1283.25 277.699C1295.24 287.49 1301.23 299.623 1301.23 314.099C1301.23 321.462 1299.47 328.7 1295.97 335.813C1292.46 342.925 1286.64 350.414 1278.5 358.28C1270.37 366.145 1256.85 376.94 1237.94 390.663C1222.16 402.043 1212.02 409.762 1207.54 413.82C1203.06 417.878 1199.36 421.958 1196.43 426.058H1301.52Z" fill="black"/>
</g>
<g id="text3188">
<path id="path3317" d="M1687.81 289.763H1661.51V145.798C1655.17 150.986 1646.87 156.174 1636.59 161.362C1626.31 166.55 1617.07 170.441 1608.89 173.035V151.195C1623.6 145.254 1636.46 138.058 1647.47 129.606C1658.48 121.155 1666.28 112.955 1670.86 105.006H1687.81V289.763Z" fill="black"/>
</g>
<g id="text318">
<path id="path3317_2" d="M2139.99 289.763H2113.68V145.798C2107.34 150.986 2099.04 156.174 2088.76 161.362C2078.48 166.55 2069.25 170.441 2061.06 173.035V151.195C2075.77 145.254 2088.64 138.058 2099.65 129.606C2110.66 121.155 2118.45 112.955 2123.03 105.006H2139.99V289.763Z" fill="black"/>
</g>
<g id="text3192_2">
<path id="path3320_2" d="M2597.05 426.058V447.772H2455.42C2455.22 442.333 2456.25 437.103 2458.49 432.082C2462.09 423.798 2467.87 415.64 2475.81 407.607C2483.75 399.574 2495.22 390.286 2510.23 379.743C2533.52 363.342 2549.25 350.352 2557.44 340.77C2565.62 331.19 2569.71 322.132 2569.71 313.597C2569.71 304.643 2565.99 297.092 2558.53 290.941C2551.08 284.791 2541.36 281.716 2529.37 281.716C2516.71 281.716 2506.57 284.979 2498.97 291.506C2491.37 298.033 2487.53 307.07 2487.43 318.617L2460.39 316.232C2462.24 298.912 2469.21 285.712 2481.29 276.633C2493.37 267.554 2509.59 263.014 2529.96 263.014C2550.52 263.014 2566.79 267.909 2578.78 277.699C2590.76 287.49 2596.75 299.623 2596.75 314.099C2596.75 321.462 2595 328.7 2591.49 335.813C2587.98 342.925 2582.16 350.414 2574.03 358.28C2565.89 366.145 2552.37 376.94 2533.47 390.663C2517.68 402.043 2507.55 409.762 2503.07 413.82C2498.58 417.878 2494.88 421.958 2491.96 426.058H2597.05Z" fill="black"/>
</g>
<g id="text3196_2">
<path id="path3323_2" d="M2848.68 688.213L2874.99 685.201C2878.01 698.003 2883.15 707.229 2890.41 712.877C2897.67 718.525 2906.51 721.349 2916.94 721.349C2929.31 721.349 2939.76 717.667 2948.29 710.304C2956.81 702.94 2961.07 693.819 2961.07 682.941C2961.07 672.566 2957.13 664.01 2949.24 657.274C2941.34 650.538 2931.31 647.17 2919.13 647.17C2914.16 647.17 2907.97 648.007 2900.57 649.68L2903.49 629.849C2905.24 630.016 2906.66 630.1 2907.73 630.1C2918.93 630.1 2929.02 627.59 2937.98 622.569C2946.95 617.548 2951.43 609.808 2951.43 599.349C2951.43 591.065 2948.16 584.203 2941.64 578.764C2935.11 573.325 2926.68 570.606 2916.35 570.606C2906.12 570.606 2897.59 573.367 2890.77 578.89C2883.95 584.413 2879.57 592.697 2877.62 603.742L2851.31 599.725C2854.53 584.58 2861.83 572.844 2873.23 564.518C2884.63 556.193 2898.81 552.03 2915.77 552.03C2927.46 552.03 2938.23 554.185 2948.07 558.494C2957.91 562.803 2965.43 568.681 2970.65 576.128C2975.86 583.576 2978.47 591.483 2978.47 599.851C2978.47 607.8 2975.98 615.038 2971.01 621.565C2966.04 628.092 2958.69 633.28 2948.94 637.129C2961.61 639.639 2971.45 644.848 2978.47 652.755C2985.48 660.663 2988.99 670.557 2988.99 682.439C2988.99 698.505 2982.17 712.124 2968.53 723.294C2954.89 734.465 2937.64 740.051 2916.79 740.051C2897.98 740.051 2882.37 735.239 2869.95 725.616C2857.52 715.994 2850.43 703.526 2848.68 688.213Z" fill="black"/>
</g>
<g id="text3200_2">
<path id="path3326_2" d="M3137.23 997.048V952.993H3044.27V932.283L3142.05 813.044H3163.53V932.283H3192.47V952.993H3163.53V997.048H3137.23ZM3137.23 932.283V849.317L3070.14 932.283H3137.23Z" fill="black"/>
</g>
<g id="text3204_3">
<path id="path3329_3" d="M3224.09 1293.36L3251.71 1291.35C3253.76 1302.9 3258.51 1311.58 3265.96 1317.39C3273.42 1323.21 3282.4 1326.12 3292.93 1326.12C3305.59 1326.12 3316.31 1322.02 3325.08 1313.82C3333.85 1305.62 3338.24 1294.74 3338.24 1281.18C3338.24 1268.3 3334.02 1258.13 3325.59 1250.68C3317.17 1243.24 3306.13 1239.51 3292.49 1239.51C3284.01 1239.51 3276.36 1241.17 3269.54 1244.47C3262.72 1247.78 3257.36 1252.06 3253.47 1257.34L3228.77 1254.57L3249.52 1160.06H3356.07V1181.65H3270.57L3259.02 1231.1C3271.88 1223.41 3285.38 1219.56 3299.5 1219.56C3318.21 1219.56 3334 1225.12 3346.86 1236.25C3359.72 1247.38 3366.15 1261.69 3366.15 1279.18C3366.15 1295.83 3360.5 1310.22 3349.2 1322.35C3335.46 1337.25 3316.7 1344.69 3292.93 1344.69C3273.44 1344.69 3257.53 1340.01 3245.21 1330.64C3232.88 1321.26 3225.84 1308.84 3224.09 1293.36Z" fill="black"/>
</g>
<g id="text3208_3">
<path id="path3332_3" d="M3503.73 1561.89L3477.57 1563.65C3475.23 1554.78 3471.91 1548.34 3467.63 1544.32C3460.51 1537.88 3451.74 1534.66 3441.32 1534.66C3432.94 1534.66 3425.58 1536.67 3419.25 1540.68C3410.97 1545.87 3404.44 1553.44 3399.66 1563.4C3394.89 1573.36 3392.41 1587.54 3392.21 1605.95C3398.54 1597.67 3406.29 1591.52 3415.45 1587.5C3424.61 1583.48 3434.21 1581.47 3444.24 1581.47C3461.78 1581.47 3476.71 1587.02 3489.04 1598.11C3501.36 1609.19 3507.53 1623.52 3507.53 1641.09C3507.53 1652.64 3504.63 1663.37 3498.83 1673.29C3493.03 1683.2 3485.07 1690.8 3474.94 1696.07C3464.8 1701.34 3453.3 1703.98 3440.44 1703.98C3418.52 1703.98 3400.64 1697.05 3386.8 1683.2C3372.97 1669.36 3366.05 1646.53 3366.05 1614.74C3366.05 1579.17 3373.7 1553.32 3389 1537.17C3402.34 1523.11 3420.32 1516.08 3442.93 1516.08C3459.78 1516.08 3473.6 1520.14 3484.36 1528.26C3495.13 1536.37 3501.58 1547.59 3503.73 1561.89ZM3396.3 1641.22C3396.3 1649 3398.23 1656.45 3402.08 1663.56C3405.93 1670.67 3411.31 1676.09 3418.23 1679.82C3425.14 1683.54 3432.4 1685.4 3440 1685.4C3451.11 1685.4 3460.66 1681.55 3468.65 1673.85C3476.64 1666.16 3480.64 1655.7 3480.64 1642.47C3480.64 1629.76 3476.69 1619.74 3468.8 1612.41C3460.9 1605.09 3450.97 1601.43 3438.98 1601.43C3427.09 1601.43 3417.01 1605.09 3408.73 1612.41C3400.44 1619.74 3396.3 1629.34 3396.3 1641.22Z" fill="black"/>
</g>
<g id="text3212_3">
<path id="path3335_3" d="M3459.64 1981.82V1960.11H3598.34V1977.68C3584.7 1990.15 3571.18 2006.71 3557.78 2027.38C3544.38 2048.05 3534.03 2069.3 3526.72 2091.14C3521.46 2106.54 3518.1 2123.4 3516.64 2141.73H3489.6C3489.89 2127.25 3493.21 2109.76 3499.54 2089.26C3505.87 2068.76 3514.96 2048.99 3526.8 2029.95C3538.64 2010.92 3551.23 1994.87 3564.58 1981.82H3459.64Z" fill="black"/>
</g>
<g id="text3216_3">
<path id="path3338_3" d="M3549.84 2465.1C3538.93 2461.67 3530.84 2456.78 3525.58 2450.42C3520.32 2444.06 3517.68 2436.44 3517.68 2427.57C3517.68 2414.18 3523.29 2402.93 3534.49 2393.81C3545.7 2384.69 3560.61 2380.13 3579.22 2380.13C3597.92 2380.13 3612.98 2384.79 3624.38 2394.12C3635.78 2403.45 3641.48 2414.81 3641.48 2428.2C3641.48 2436.74 3638.87 2444.16 3633.66 2450.48C3628.45 2456.8 3620.53 2461.67 3609.91 2465.1C3623.06 2468.78 3633.07 2474.72 3639.94 2482.92C3646.81 2491.12 3650.25 2500.91 3650.25 2512.29C3650.25 2528.03 3643.77 2541.25 3630.81 2551.96C3617.85 2562.67 3600.8 2568.02 3579.65 2568.02C3558.51 2568.02 3541.46 2562.65 3528.5 2551.89C3515.54 2541.14 3509.06 2527.73 3509.06 2511.67C3509.06 2499.7 3512.59 2489.68 3519.66 2481.61C3526.72 2473.53 3536.78 2468.03 3549.84 2465.1ZM3544.58 2426.82C3544.58 2435.52 3547.84 2442.63 3554.37 2448.16C3560.9 2453.68 3569.37 2456.44 3579.8 2456.44C3589.93 2456.44 3598.24 2453.7 3604.72 2448.22C3611.2 2442.74 3614.44 2436.02 3614.44 2428.07C3614.44 2419.79 3611.1 2412.82 3604.43 2407.18C3597.75 2401.53 3589.45 2398.7 3579.51 2398.7C3569.47 2398.7 3561.14 2401.47 3554.52 2406.99C3547.89 2412.51 3544.58 2419.12 3544.58 2426.82ZM3536.1 2511.79C3536.1 2518.24 3537.88 2524.47 3541.43 2530.49C3544.99 2536.52 3550.28 2541.18 3557.29 2544.49C3564.31 2547.79 3571.86 2549.45 3579.95 2549.45C3592.52 2549.45 3602.89 2545.97 3611.08 2539.03C3619.26 2532.08 3623.36 2523.26 3623.36 2512.55C3623.36 2501.67 3619.14 2492.67 3610.71 2485.56C3602.28 2478.45 3591.74 2474.89 3579.07 2474.89C3566.7 2474.89 3556.44 2478.41 3548.3 2485.43C3540.17 2492.46 3536.1 2501.25 3536.1 2511.79Z" fill="black"/>
</g>
<g id="text3188_2">
<path id="path3317_3" d="M1788.76 5259.52H1764.56V5114.39C1758.73 5119.62 1751.09 5124.85 1741.63 5130.08C1732.17 5135.31 1723.68 5139.23 1716.15 5141.85V5119.83C1729.68 5113.85 1741.52 5106.59 1751.65 5098.07C1761.78 5089.55 1768.95 5081.29 1773.16 5073.27H1788.76V5259.52Z" fill="black"/>
</g>
<g id="text3188_3">
<path id="path3317_4" d="M2069.53 5259.52H2045.32V5114.39C2039.5 5119.62 2031.85 5124.85 2022.4 5130.08C2012.94 5135.31 2004.45 5139.23 1996.92 5141.85V5119.83C2010.45 5113.85 2022.28 5106.59 2032.41 5098.07C2042.54 5089.55 2049.72 5081.29 2053.93 5073.27H2069.53V5259.52Z" fill="black"/>
</g>
<g id="text3192_3">
<path id="path3320_3" d="M1508.68 5195.31V5217.03H1367.05C1366.86 5211.59 1367.88 5206.36 1370.12 5201.34C1373.73 5193.05 1379.5 5184.9 1387.44 5176.86C1395.38 5168.83 1406.86 5159.54 1421.86 5149C1445.15 5132.6 1460.89 5119.61 1469.07 5110.03C1477.26 5100.45 1481.35 5091.39 1481.35 5082.85C1481.35 5073.9 1477.62 5066.35 1470.17 5060.2C1462.71 5054.05 1452.99 5050.97 1441.01 5050.97C1428.34 5050.97 1418.21 5054.24 1410.61 5060.76C1403.01 5067.29 1399.16 5076.33 1399.06 5087.87L1372.02 5085.49C1373.87 5068.17 1380.84 5054.97 1392.92 5045.89C1405.01 5036.81 1421.23 5032.27 1441.59 5032.27C1462.15 5032.27 1478.42 5037.17 1490.41 5046.96C1502.39 5056.75 1508.39 5068.88 1508.39 5083.35C1508.39 5090.72 1506.63 5097.96 1503.12 5105.07C1499.62 5112.18 1493.8 5119.67 1485.66 5127.54C1477.52 5135.4 1464 5146.2 1445.1 5159.92C1429.32 5171.3 1419.18 5179.02 1414.7 5183.08C1410.22 5187.13 1406.52 5191.21 1403.59 5195.31H1508.68Z" fill="black"/>
</g>
<g id="text3192_4">
<path id="path3320_4" d="M2425.64 5195.31V5217.03H2284.02C2283.82 5211.59 2284.84 5206.36 2287.08 5201.34C2290.69 5193.05 2296.46 5184.9 2304.4 5176.86C2312.35 5168.83 2323.82 5159.54 2338.82 5149C2362.11 5132.6 2377.85 5119.61 2386.03 5110.03C2394.22 5100.45 2398.31 5091.39 2398.31 5082.85C2398.31 5073.9 2394.58 5066.35 2387.13 5060.2C2379.67 5054.05 2369.95 5050.97 2357.97 5050.97C2345.3 5050.97 2335.17 5054.24 2327.57 5060.76C2319.97 5067.29 2316.12 5076.33 2316.02 5087.87L2288.98 5085.49C2290.84 5068.17 2297.8 5054.97 2309.88 5045.89C2321.97 5036.81 2338.19 5032.27 2358.55 5032.27C2379.11 5032.27 2395.39 5037.17 2407.37 5046.96C2419.36 5056.75 2425.35 5068.88 2425.35 5083.35C2425.35 5090.72 2423.59 5097.96 2420.09 5105.07C2416.58 5112.18 2410.76 5119.67 2402.62 5127.54C2394.48 5135.4 2380.97 5146.2 2362.06 5159.92C2346.28 5171.3 2336.14 5179.02 2331.66 5183.08C2327.18 5187.13 2323.48 5191.21 2320.55 5195.31H2425.64Z" fill="black"/>
</g>
<g id="text3196_3">
<path id="path3323_3" d="M1063.13 5023.45L1089.44 5020.43C1092.46 5033.24 1097.6 5042.46 1104.86 5048.11C1112.12 5053.76 1120.96 5056.58 1131.38 5056.58C1143.76 5056.58 1154.21 5052.9 1162.73 5045.54C1171.26 5038.17 1175.52 5029.05 1175.52 5018.17C1175.52 5007.8 1171.58 4999.24 1163.68 4992.51C1155.79 4985.77 1145.76 4982.4 1133.58 4982.4C1128.61 4982.4 1122.42 4983.24 1115.01 4984.91L1117.94 4965.08C1119.69 4965.25 1121.1 4965.33 1122.18 4965.33C1133.38 4965.33 1143.47 4962.82 1152.43 4957.8C1161.39 4952.78 1165.88 4945.04 1165.88 4934.58C1165.88 4926.3 1162.61 4919.44 1156.08 4914C1149.56 4908.56 1141.13 4905.84 1130.8 4905.84C1120.57 4905.84 1112.04 4908.6 1105.22 4914.12C1098.4 4919.65 1094.02 4927.93 1092.07 4938.97L1065.76 4934.96C1068.98 4919.81 1076.28 4908.08 1087.68 4899.75C1099.08 4891.43 1113.26 4887.26 1130.21 4887.26C1141.91 4887.26 1152.67 4889.42 1162.51 4893.73C1172.36 4898.04 1179.88 4903.91 1185.1 4911.36C1190.31 4918.81 1192.92 4926.72 1192.92 4935.08C1192.92 4943.03 1190.43 4950.27 1185.46 4956.8C1180.49 4963.32 1173.14 4968.51 1163.39 4972.36C1176.06 4974.87 1185.9 4980.08 1192.92 4987.99C1199.93 4995.9 1203.44 5005.79 1203.44 5017.67C1203.44 5033.74 1196.62 5047.36 1182.98 5058.53C1169.34 5069.7 1152.09 5075.28 1131.24 5075.28C1112.43 5075.28 1096.82 5070.47 1084.39 5060.85C1071.97 5051.23 1064.88 5038.76 1063.13 5023.45Z" fill="black"/>
</g>
<g id="text3196_4">
<path id="path3323_4" d="M2613.13 5000.44L2639.44 4997.43C2642.46 5010.23 2647.6 5019.46 2654.86 5025.11C2662.12 5030.76 2670.96 5033.58 2681.39 5033.58C2693.76 5033.58 2704.21 5029.9 2712.74 5022.54C2721.26 5015.17 2725.52 5006.05 2725.52 4995.17C2725.52 4984.8 2721.58 4976.24 2713.69 4969.51C2705.79 4962.77 2695.76 4959.4 2683.58 4959.4C2678.61 4959.4 2672.42 4960.24 2665.02 4961.91L2667.94 4942.08C2669.69 4942.25 2671.11 4942.33 2672.18 4942.33C2683.38 4942.33 2693.47 4939.82 2702.43 4934.8C2711.4 4929.78 2715.88 4922.04 2715.88 4911.58C2715.88 4903.3 2712.61 4896.43 2706.09 4891C2699.56 4885.56 2691.13 4882.84 2680.8 4882.84C2670.57 4882.84 2662.04 4885.6 2655.22 4891.12C2648.4 4896.64 2644.02 4904.93 2642.07 4915.97L2615.76 4911.96C2618.98 4896.81 2626.28 4885.08 2637.68 4876.75C2649.08 4868.42 2663.26 4864.26 2680.22 4864.26C2691.91 4864.26 2702.68 4866.42 2712.52 4870.73C2722.36 4875.03 2729.88 4880.91 2735.1 4888.36C2740.31 4895.81 2742.92 4903.71 2742.92 4912.08C2742.92 4920.03 2740.43 4927.27 2735.46 4933.8C2730.49 4940.32 2723.14 4945.51 2713.39 4949.36C2726.06 4951.87 2735.9 4957.08 2742.92 4964.99C2749.93 4972.89 2753.44 4982.79 2753.44 4994.67C2753.44 5010.74 2746.62 5024.36 2732.98 5035.53C2719.34 5046.7 2702.09 5052.28 2681.24 5052.28C2662.43 5052.28 2646.82 5047.47 2634.4 5037.85C2621.97 5028.23 2614.88 5015.76 2613.13 5000.44Z" fill="black"/>
</g>
<g id="text3200_3">
<path id="path3326_3" d="M833.255 4822.25V4778.2H740.299V4757.49L838.078 4638.25H859.563V4757.49H888.502V4778.2H859.563V4822.25H833.255ZM833.255 4757.49V4674.52L766.169 4757.49H833.255Z" fill="black"/>
</g>
<g id="text3200_4">
<path id="path3326_4" d="M2972.13 4778.25V4734.2H2879.18V4713.49L2976.95 4594.25H2998.44V4713.49H3027.38V4734.2H2998.44V4778.25H2972.13ZM2972.13 4713.49V4630.52L2905.05 4713.49H2972.13Z" fill="black"/>
</g>
<g id="text3204_4">
<path id="path3329_4" d="M499.492 4416.53L527.115 4414.52C529.161 4426.07 533.912 4434.75 541.366 4440.56C548.819 4446.38 557.808 4449.29 568.331 4449.29C580.998 4449.29 591.716 4445.19 600.486 4436.99C609.255 4428.79 613.64 4417.91 613.64 4404.35C613.64 4391.47 609.425 4381.3 600.997 4373.85C592.569 4366.4 581.534 4362.68 567.893 4362.68C559.416 4362.68 551.767 4364.33 544.946 4367.64C538.126 4370.94 532.767 4375.23 528.869 4380.5L504.169 4377.74L524.923 4283.23H631.471V4304.82H545.969L534.423 4354.27C547.285 4346.57 560.78 4342.72 574.908 4342.72C593.616 4342.72 609.401 4348.29 622.263 4359.42C635.124 4370.55 641.555 4384.86 641.555 4402.34C641.555 4419 635.904 4433.39 624.601 4445.52C610.863 4460.41 592.106 4467.86 568.331 4467.86C548.844 4467.86 532.937 4463.18 520.611 4453.8C508.285 4444.43 501.246 4432.01 499.492 4416.53Z" fill="black"/>
</g>
<g id="text3208_4">
<path id="path3332_4" d="M431.065 3931.02L404.903 3932.78C402.564 3923.91 399.251 3917.47 394.964 3913.45C387.851 3907.01 379.082 3903.79 368.656 3903.78C360.276 3903.79 352.92 3905.79 346.587 3909.81C338.304 3915 331.776 3922.57 327.002 3932.53C322.227 3942.49 319.743 3956.67 319.548 3975.08C325.881 3966.79 333.627 3960.64 342.786 3956.63C351.946 3952.61 361.543 3950.6 371.579 3950.6C389.118 3950.6 404.05 3956.15 416.376 3967.23C428.702 3978.32 434.865 3992.65 434.865 4010.22C434.865 4021.77 431.966 4032.5 426.168 4042.42C420.371 4052.33 412.405 4059.93 402.272 4065.2C392.138 4070.47 380.641 4073.1 367.779 4073.1C345.856 4073.1 327.976 4066.18 314.14 4052.33C300.304 4038.48 293.386 4015.66 293.386 3983.86C293.386 3948.3 301.035 3922.44 316.332 3906.3C329.681 3892.24 347.658 3885.21 370.264 3885.21C387.12 3885.21 400.932 3889.27 411.699 3897.38C422.466 3905.5 428.921 3916.71 431.065 3931.02ZM323.64 4010.35C323.64 4018.13 325.564 4025.58 329.413 4032.69C333.262 4039.8 338.645 4045.22 345.563 4048.94C352.481 4052.67 359.74 4054.53 367.341 4054.53C378.448 4054.53 387.997 4050.68 395.987 4042.98C403.977 4035.28 407.972 4024.82 407.972 4011.6C407.972 3998.88 404.026 3988.86 396.133 3981.54C388.241 3974.22 378.302 3970.56 366.318 3970.56C354.43 3970.56 344.345 3974.22 336.063 3981.54C327.781 3988.86 323.64 3998.46 323.64 4010.35Z" fill="black"/>
</g>
<g id="text3212_4">
<path id="path3335_4" d="M180.869 3380.89V3359.18H319.571V3376.75C305.929 3389.22 292.41 3405.79 279.012 3426.46C265.615 3447.12 255.262 3468.38 247.954 3490.22C242.693 3505.61 239.331 3522.48 237.869 3540.8H210.831C211.123 3526.32 214.436 3508.84 220.769 3488.34C227.103 3467.83 236.189 3448.07 248.027 3429.03C259.866 3409.99 272.46 3393.95 285.809 3380.89H180.869Z" fill="black"/>
</g>
<g id="text3216_4">
<path id="path3338_4" d="M175.377 2995.13C164.464 2991.7 156.377 2986.8 151.115 2980.44C145.854 2974.09 143.223 2966.47 143.223 2957.6C143.223 2944.21 148.826 2932.96 160.031 2923.84C171.236 2914.72 186.144 2910.16 204.755 2910.16C223.463 2910.16 238.517 2914.82 249.917 2924.15C261.317 2933.48 267.017 2944.84 267.017 2958.23C267.017 2966.76 264.411 2974.19 259.198 2980.51C253.985 2986.82 246.068 2991.7 235.447 2995.13C248.601 2998.81 258.613 3004.75 265.483 3012.95C272.352 3021.15 275.786 3030.94 275.787 3042.32C275.786 3058.05 269.307 3071.28 256.348 3081.99C243.388 3092.7 226.337 3098.05 205.193 3098.05C184.049 3098.05 166.998 3092.68 154.039 3081.92C141.079 3071.17 134.6 3057.76 134.6 3041.7C134.6 3029.73 138.132 3019.71 145.196 3011.63C152.26 3003.56 162.321 2998.06 175.377 2995.13ZM170.116 2956.85C170.116 2965.55 173.38 2972.66 179.908 2978.19C186.437 2983.71 194.913 2986.47 205.339 2986.47C215.473 2986.47 223.779 2983.73 230.259 2978.25C236.738 2972.77 239.978 2966.05 239.978 2958.1C239.978 2949.82 236.641 2942.85 229.967 2937.2C223.292 2931.56 214.986 2928.73 205.047 2928.73C195.011 2928.73 186.68 2931.49 180.054 2937.02C173.429 2942.54 170.116 2949.15 170.116 2956.85ZM161.639 3041.82C161.639 3048.26 163.417 3054.5 166.973 3060.52C170.53 3066.55 175.816 3071.21 182.831 3074.52C189.847 3077.82 197.398 3079.48 205.486 3079.48C218.055 3079.48 228.432 3076 236.617 3069.06C244.801 3062.11 248.894 3053.28 248.894 3042.57C248.894 3031.7 244.68 3022.7 236.251 3015.59C227.823 3008.48 217.275 3004.92 204.609 3004.92C192.234 3004.92 181.979 3008.43 173.843 3015.46C165.707 3022.49 161.639 3031.28 161.639 3041.82Z" fill="black"/>
</g>
<line id="Line 1" x1="195" y1="2739.5" x2="3481" y2="2739.5" stroke="black"/>
<path id="&#229;&#183;&#166;" d="M-2.466 2679.88H171.86V2694.63H-2.466V2679.88ZM51.67 2733.41H166.608V2747.96H51.67V2733.41ZM30.864 2808.76H175.496V2823.3H30.864V2808.76ZM97.12 2739.88H112.472V2817.04H97.12V2739.88ZM58.538 2643.52L74.294 2645.54C63.386 2708.36 44.802 2775.63 -0.244 2817.04C-2.466 2813.61 -7.314 2808.15 -10.344 2805.12C31.874 2767.15 49.65 2701.9 58.538 2643.52Z" fill="black"/>
<path id="&#229;&#143;&#179;" d="M3531.93 2681.09H3708.48V2695.84H3531.93V2681.09ZM3582.23 2803.3H3683.83V2818.05H3582.23V2803.3ZM3573.14 2735.03H3693.93V2828.55H3677.97V2749.77H3588.08V2829.56H3573.14V2735.03ZM3602.02 2643.32L3617.98 2646.35C3604.85 2701.5 3581.62 2756.64 3535.36 2789.37C3533.14 2785.93 3528.49 2780.48 3525.26 2777.45C3569.3 2747.35 3591.32 2694.43 3602.02 2643.32Z" fill="black"/>
<line id="Line 2" x1="1911.48" y1="2.18569e-07" x2="1911.48" y2="5401.29" stroke="black" stroke-width="10"/>
</g>
<defs>
<clipPath id="clip0_18_276">
<rect width="3814" height="5336" fill="white"/>
</clipPath>
</defs>
</svg>
